<?xml version="1.0" encoding="UTF-8" standalone="no" ?>
<!DOCTYPE svg PUBLIC "-//W3C//DTD SVG 1.1//EN" "http://www.w3.org/Graphics/SVG/1.1/DTD/svg11.dtd">
<svg xmlns="http://www.w3.org/2000/svg" xmlns:xlink="http://www.w3.org/1999/xlink" version="1.1" width="1280" height="1024" viewBox="0 0 1280 1024" xml:space="preserve">
<desc>Created with Fabric.js 4.4.0</desc>
<defs>
</defs>
<g transform="matrix(1 0 0 1 640 512)" id="background-logo"  >
<rect style="stroke: none; stroke-width: 0; stroke-dasharray: none; stroke-linecap: butt; stroke-dashoffset: 0; stroke-linejoin: miter; stroke-miterlimit: 4; fill: rgb(255,255,255); fill-opacity: 0; fill-rule: nonzero; opacity: 1;"  paint-order="stroke"  x="-640" y="-512" rx="0" ry="0" width="1280" height="1024" />
</g>
<g transform="matrix(1.9211538461538462 0 0 1.9211538461538462 632.3908903953081 512.4185010282581)" id="logo-logo"  >
<g style=""  paint-order="stroke"   >
		<g transform="matrix(0.5017054684201492 0 0 0.5017054684201492 38.270885428287386 -90.37241696059439)"  >
<g style=""  paint-order="stroke"   >
		<g transform="matrix(1 0 0 1 0 0)"  >
<path style="stroke: none; stroke-width: 1; stroke-dasharray: none; stroke-linecap: butt; stroke-dashoffset: 0; stroke-linejoin: miter; stroke-miterlimit: 4; fill: rgb(115,18,211); fill-rule: nonzero; opacity: 1;"  paint-order="stroke"  transform=" translate(-84.4, -100)" d="M 81.16 0 L 87.64 0 C 109.16497031537739 0 129.80833388625769 8.550761164057297 145.0287863611002 23.771213638899788 C 160.2492388359427 38.991666113742276 168.8 59.63502968462259 168.8 81.15999999999998 L 168.8 135.74 C 168.80000042967944 171.2259131479754 140.03591271829606 199.99447776016993 104.55000000000005 200 L 0 200 L 0 81.16 C 0 36.3365697037328 36.3365697037328 0 81.16 0 Z" stroke-linecap="round" />
</g>
</g>
</g>
		<g transform="matrix(-0.3367393736374613 0 0 0.3367393736374613 -39.64237913997539 -72.88696224047851)"  >
<g style=""  paint-order="stroke"   >
		<g transform="matrix(1 0 0 1 0 0)"  >
<path style="stroke: none; stroke-width: 1; stroke-dasharray: none; stroke-linecap: butt; stroke-dashoffset: 0; stroke-linejoin: miter; stroke-miterlimit: 4; fill: rgb(186,128,244); fill-rule: nonzero; opacity: 1;"  paint-order="stroke"  transform=" translate(-84.4, -100)" d="M 81.16 0 L 87.64 0 C 109.16497031537739 0 129.80833388625769 8.550761164057297 145.0287863611002 23.771213638899788 C 160.2492388359427 38.991666113742276 168.8 59.63502968462259 168.8 81.15999999999998 L 168.8 135.74 C 168.80000042967944 171.2259131479754 140.03591271829606 199.99447776016993 104.55000000000005 200 L 0 200 L 0 81.16 C 0 36.3365697037328 36.3365697037328 0 81.16 0 Z" stroke-linecap="round" />
</g>
</g>
</g>
		<g transform="matrix(-0.5017054684201492 0 0 -0.5017054684201492 -38.27088542828733 90.37241696059436)"  >
<g style=""  paint-order="stroke"   >
		<g transform="matrix(1 0 0 1 0 0)"  >
<path style="stroke: none; stroke-width: 1; stroke-dasharray: none; stroke-linecap: butt; stroke-dashoffset: 0; stroke-linejoin: miter; stroke-miterlimit: 4; fill: rgb(115,18,211); fill-rule: nonzero; opacity: 1;"  paint-order="stroke"  transform=" translate(-84.4, -100)" d="M 81.16 0 L 87.64 0 C 109.16497031537739 0 129.80833388625769 8.550761164057297 145.0287863611002 23.771213638899788 C 160.2492388359427 38.991666113742276 168.8 59.63502968462259 168.8 81.15999999999998 L 168.8 135.74 C 168.80000042967944 171.2259131479754 140.03591271829606 199.99447776016993 104.55000000000005 200 L 0 200 L 0 81.16 C 0 36.3365697037328 36.3365697037328 0 81.16 0 Z" stroke-linecap="round" />
</g>
</g>
</g>
		<g transform="matrix(0.3367393736374613 0 0 -0.3367393736374613 39.642379139975446 72.88696224047845)"  >
<g style=""  paint-order="stroke"   >
		<g transform="matrix(1 0 0 1 0 0)"  >
<path style="stroke: none; stroke-width: 1; stroke-dasharray: none; stroke-linecap: butt; stroke-dashoffset: 0; stroke-linejoin: miter; stroke-miterlimit: 4; fill: rgb(188,140,239); fill-rule: nonzero; opacity: 1;"  paint-order="stroke"  transform=" translate(-84.4, -100)" d="M 81.16 0 L 87.64 0 C 109.16497031537739 0 129.80833388625769 8.550761164057297 145.0287863611002 23.771213638899788 C 160.2492388359427 38.991666113742276 168.8 59.63502968462259 168.8 81.15999999999998 L 168.8 135.74 C 168.80000042967944 171.2259131479754 140.03591271829606 199.99447776016993 104.55000000000005 200 L 0 200 L 0 81.16 C 0 36.3365697037328 36.3365697037328 0 81.16 0 Z" stroke-linecap="round" />
</g>
</g>
</g>
</g>
</g>
<g transform="matrix(1.9211538461538462 0 0 1.9211538461538462 640 500.92539043753413)" id="text-logo"  >
<g style=""  paint-order="stroke"   >
		<g transform="matrix(1 0 0 1 0 0)" id="text-logo-path-0"  >
<path style="stroke: none; stroke-width: 1; stroke-dasharray: none; stroke-linecap: butt; stroke-dashoffset: 0; stroke-linejoin: miter; stroke-miterlimit: 4; fill: rgb(115,18,211); fill-rule: nonzero; opacity: 1;"  paint-order="stroke"  transform=" translate(-121.54, 28.305)" d="M 2.68 -55.28 L 34.3 -55.28 L 34.3 -44.22 L 15.28 -44.22 L 15.28 -33.23 L 33.5 -33.23 L 33.5 -22.18 L 15.28 -22.18 L 15.28 -11.06 L 34.3 -11.06 L 34.3 0 L 2.68 0 L 2.68 -55.28 Z M 53 -4.29 L 53 -4.29 Q 48.17 -9.51 48.17 -17.15 Q 48.17 -24.79 53 -30.08 Q 57.82 -35.38 65.26 -35.38 L 65.26 -35.38 Q 72.09 -35.38 76.51 -31.09 L 76.51 -31.09 L 76.51 -34.37 L 88.37 -34.37 L 88.37 0 L 76.65 0 L 76.65 -3.89 L 76.51 -3.89 Q 72.09 1.01 65.26 1.01 L 65.26 1.01 Q 57.82 1.01 53 -4.29 Z M 63.11 -22.98 L 63.11 -22.98 Q 60.77 -20.7 60.77 -17.15 Q 60.77 -13.6 62.98 -11.36 Q 65.19 -9.11 68.81 -9.11 L 68.81 -9.11 Q 72.29 -9.11 74.54 -11.39 Q 76.78 -13.67 76.78 -17.15 L 76.78 -17.15 Q 76.78 -20.7 74.47 -22.98 Q 72.16 -25.26 68.81 -25.26 L 68.81 -25.26 Q 65.39 -25.26 63.11 -22.98 Z M 107.07 -4.29 L 107.07 -4.29 Q 102.24 -9.51 102.24 -17.15 Q 102.24 -24.79 107.07 -30.08 Q 111.89 -35.38 119.33 -35.38 L 119.33 -35.38 Q 126.16 -35.38 130.58 -31.09 L 130.58 -31.09 L 130.58 -57.62 L 142.44 -57.62 L 142.44 0 L 130.72 0 L 130.72 -3.89 L 130.58 -3.89 Q 126.16 1.01 119.33 1.01 L 119.33 1.01 Q 111.89 1.01 107.07 -4.29 Z M 117.18 -22.98 L 117.18 -22.98 Q 114.84 -20.7 114.84 -17.15 Q 114.84 -13.6 117.05 -11.36 Q 119.26 -9.11 122.88 -9.11 L 122.88 -9.11 Q 126.36 -9.11 128.61 -11.39 Q 130.85 -13.67 130.85 -17.15 L 130.85 -17.15 Q 130.85 -20.7 128.54 -22.98 Q 126.23 -25.26 122.88 -25.26 L 122.88 -25.26 Q 119.46 -25.26 117.18 -22.98 Z M 161.14 -4.29 L 161.14 -4.29 Q 156.31 -9.51 156.31 -17.15 Q 156.31 -24.79 161.14 -30.08 Q 165.96 -35.38 173.4 -35.38 L 173.4 -35.38 Q 180.23 -35.38 184.65 -31.09 L 184.65 -31.09 L 184.65 -34.37 L 196.51 -34.37 L 196.51 0 L 184.79 0 L 184.79 -3.89 L 184.65 -3.89 Q 180.23 1.01 173.4 1.01 L 173.4 1.01 Q 165.96 1.01 161.14 -4.29 Z M 171.25 -22.98 L 171.25 -22.98 Q 168.91 -20.7 168.91 -17.15 Q 168.91 -13.6 171.12 -11.36 Q 173.33 -9.11 176.95 -9.11 L 176.95 -9.11 Q 180.43 -9.11 182.68 -11.39 Q 184.92 -13.67 184.92 -17.15 L 184.92 -17.15 Q 184.92 -20.7 182.61 -22.98 Q 180.3 -25.26 176.95 -25.26 L 176.95 -25.26 Q 173.53 -25.26 171.25 -22.98 Z M 222.24 0 L 210.38 0 L 210.38 -34.37 L 222.24 -34.37 L 222.24 -29.41 L 222.37 -29.41 Q 222.51 -29.68 222.81 -30.08 Q 223.11 -30.49 224.12 -31.49 Q 225.12 -32.5 226.26 -33.3 Q 227.4 -34.1 229.21 -34.74 Q 231.02 -35.38 232.89 -35.38 L 232.89 -35.38 Q 234.84 -35.38 236.71 -34.84 Q 238.59 -34.3 239.46 -33.77 L 239.46 -33.77 L 240.4 -33.23 L 235.44 -23.18 Q 233.23 -25.06 229.27 -25.06 L 229.27 -25.06 Q 227.13 -25.06 225.59 -24.12 Q 224.05 -23.18 223.41 -21.84 Q 222.78 -20.5 222.51 -19.56 Q 222.24 -18.63 222.24 -18.09 L 222.24 -18.09 L 222.24 0 Z" stroke-linecap="round" />
</g>
</g>
</g>
</svg>