<svg xmlns="http://www.w3.org/2000/svg" enable-background="new 0 0 1600 1600" viewBox="0 0 1600 1600"><path fill="#7312d31f" d="M367.212 1488.086S261.813 1105.807 224.758 995.66c-37.055-110.146-17.814-129.465 39.003-151.301 27.914-10.728 44.711-2.354-7.203-224.727-53.378-228.644-78.91-310.992-12.282-354.906 66.628-43.914 809.063-199.884 909.686-152.861 43.613 20.381 41.629 190.643 79.87 344.504 22.339 89.878 87.15 9.853 120.367 57.939 48.605 70.363 70.605 419.008 73.633 675.334s-29.286 304.757-92.396 300.969c-84.255-5.057-968.224-2.525-968.224-2.525z"/><path fill="#80788f" d="M1086.045 1484.394c0 6.063-30.624 5.778-357.084 5.778-336.861 0-374.48 3.464-374.48-2.599 0-6.063 175.155-5.49 373.325-5.49s358.239-3.753 358.239 2.311z"/><path fill="#493333" d="M604.894 231.908c-6.121-1.581-12.349-.736-18.512-.534l-18.536.609c-12.209.401-24.971-.533-37.053 1.842-7.141 1.404-6.728 15.7.499 16.677 12.205 1.65 24.883-.046 37.097-.375l18.539-.499c6.164-.166 12.43.306 18.447-1.639 5.287-1.708 4.903-14.69-.481-16.081z"/><path fill="#684646" d="M380.699 316.121s-18.892 1074.801-11.958 1110.625c6.934 35.824 33.513 55.469 70.492 57.781 36.98 2.311 521.181 0 521.181 0s65.87-5.778 78.582-68.181c9.775-47.988 1.156-1063.164 0-1087.432-1.156-24.268-8.089-70.492-69.337-79.737-42.663-6.44-500.861-11.7-531.18-4.704-30.045 6.934-54.313 23.112-57.78 71.648z"/><path fill="#d5b5f7" d="M1021.331 1388.864c-1.156 54.314-42.758 63.559-42.758 63.559s-56.972.543-133.67 1.075c-37.604.243-79.957.497-122.657.693-23.262.092-46.629.173-69.394.231-48.628.104-94.506.069-130.723-.208-37.939-.289-65.246-.844-73.982-1.791-42.758-4.622-38.135-67.026-38.135-67.026l6.934-820.485s4.25-196.582 7.336-243.916c3.467-53.158 52.003-55.469 52.003-55.469s446.82 3.548 493.045 5.859c46.224 2.311 49.691 54.314 49.691 54.314s3.466 1008.85 2.31 1063.164z"/><path fill="#fff" d="m510.39 666.639 42.692-51.739a33.433 33.433 0 0 0-20.061-6.65c-18.546 0-33.581 15.035-33.581 33.581 0 9.827 4.222 18.667 10.95 24.808zM556.817 618.138l-42.542 51.557a33.424 33.424 0 0 0 18.746 5.716c18.546 0 33.581-15.035 33.581-33.581 0-9.246-3.739-17.619-9.785-23.692zM525.589 836.599a2.473 2.473 0 0 1-2.359-1.739l-16.759-54-7.189 9.345a2.47 2.47 0 0 1-1.959.964h-22.209a2.47 2.47 0 1 1 0-4.942h20.992l9.354-12.159a2.472 2.472 0 0 1 4.319.774l14.647 47.194 10.402-95.187a2.471 2.471 0 0 1 2.443-2.203h.013a2.47 2.47 0 0 1 2.453 2.176l8.234 68.49h42.954a2.47 2.47 0 1 1 0 4.942h-45.146a2.472 2.472 0 0 1-2.454-2.176l-5.925-49.285-9.355 85.601a2.47 2.47 0 0 1-2.219 2.191c-.078.01-.158.014-.237.014zM572.704 869.725v-8.34h-10.503v7.971c-8.564 1.13-16.134 5.554-19.193 10.966-8.779 15.533-12.361 38.484-40.932 51.315-28.572 12.831-25.455 35.792-25.455 35.792-12.156 3.377-7.355 31.293-7.355 31.293h11.381s-.685-10.195.026-14.257c2.014-11.499 6.078-6.906 33.091-8.932 27.013-2.026 83.945-7.419 83.945-62.796.001-28.38-12.062-40.26-25.005-43.012zm-9.764 18.358c-5.089 1.594-8.383 7.699-19.297 27.929l-2.513 4.654c-13.891 25.7-39.74 31.403-40.834 31.633a2.472 2.472 0 0 1-1.022-4.835c.246-.053 24.736-5.52 37.507-29.147l2.51-4.651c11.951-22.151 15.163-28.104 22.17-30.299a2.47 2.47 0 0 1 3.097 1.62 2.468 2.468 0 0 1-1.618 3.096zM584.069 1128.827a12.128 12.128 0 0 1-5.672-.817l-107.885-42.997a12.1 12.1 0 0 1-6.683-6.506 12.1 12.1 0 0 1-.125-9.325l.436-1.094a12.11 12.11 0 0 1 6.505-6.683 12.102 12.102 0 0 1 9.326-.125l107.885 42.997a12.1 12.1 0 0 1 6.683 6.506 12.1 12.1 0 0 1 .125 9.325l-.436 1.094a12.107 12.107 0 0 1-6.505 6.683 12.25 12.25 0 0 1-3.654.942zm-109.3-63.441a7.243 7.243 0 0 0-2.172.56 7.198 7.198 0 0 0-3.867 3.972l-.436 1.094a7.194 7.194 0 0 0 .075 5.543 7.192 7.192 0 0 0 3.973 3.866l107.885 42.996a7.187 7.187 0 0 0 5.544-.074 7.195 7.195 0 0 0 3.867-3.972l.436-1.094a7.194 7.194 0 0 0-.075-5.543 7.194 7.194 0 0 0-3.973-3.867l-107.885-42.996a7.227 7.227 0 0 0-3.372-.485z"/><path fill="#fff" d="M600.09 1127.486a2.454 2.454 0 0 1-1.151-.165l-8.465-3.374a2.47 2.47 0 0 1 .407-4.714 2.47 2.47 0 0 1 2.947-3.701l8.465 3.374a2.475 2.475 0 0 1 1.381 3.211l-1.524 3.824a2.472 2.472 0 0 1-2.06 1.545z"/><path fill="#fff" d="M592.388 1122.201a2.467 2.467 0 0 1-1.151-.165l-72.18-28.767a2.471 2.471 0 0 1 1.829-4.591l72.18 28.767a2.471 2.471 0 0 1-.678 4.756zM566.36 1305.08a2.472 2.472 0 0 1-2.462-2.288c-1.707-22.955-3.473-46.691-41.3-73.382-27.099-19.121-24.481-54.919-24.357-56.433a2.464 2.464 0 0 1 2.665-2.26 2.47 2.47 0 0 1 2.26 2.663c-.028.343-2.479 34.522 22.281 51.991 39.733 28.037 41.67 54.078 43.379 77.055a2.471 2.471 0 0 1-2.466 2.654z"/><path fill="#fff" d="M499.682 1308.567a2.471 2.471 0 0 1-2.467-2.655c.086-1.149.168-2.306.25-3.471 1.706-24.096 3.641-51.407 39.631-77.064 22.494-16.035 25.027-40.724 25.208-49.11l-59.752 13.626a2.47 2.47 0 1 1-1.099-4.819l62.73-14.306a2.473 2.473 0 0 1 3.014 2.216c.112 1.431 2.405 35.29-27.231 56.417-34.094 24.305-35.941 50.381-37.57 73.388-.083 1.171-.165 2.334-.251 3.489a2.473 2.473 0 0 1-2.463 2.289z"/><path fill="#fff" d="M507.795 1266.423a2.472 2.472 0 0 1-.994-4.735l35.675-15.655a2.471 2.471 0 0 1 1.986 4.526l-35.675 15.655c-.323.141-.66.209-.992.209zM500.704 1295.933a2.472 2.472 0 0 1-.858-4.789l57.145-21.175a2.471 2.471 0 1 1 1.717 4.634l-57.145 21.175a2.464 2.464 0 0 1-.859.155zM513.145 1216.875a2.471 2.471 0 0 1-.642-4.858l46.007-12.41a2.472 2.472 0 0 1 1.288 4.772l-46.007 12.41a2.501 2.501 0 0 1-.646.086zM564.733 1175.65a2.47 2.47 0 0 1-2.471-2.471v-4.825a2.471 2.471 0 0 1 4.942 0v4.825a2.47 2.47 0 0 1-2.471 2.471z"/><path fill="#7312d3" d="m460.391 603.709 12.726 16.732 36.793-33.85-13.545-1.92-23.248 21.97-6.632-10.436z"/><path fill="#3b8680" d="m460.391 732.531 12.726 16.732 36.793-33.85-13.545-1.92-23.248 21.97-6.632-10.437z" opacity=".5"/><path fill="#7312d3" d="m460.391 882.075 12.726 16.732 36.793-33.85-13.545-1.92-23.248 21.97-6.632-10.437z"/><path fill="#3b8680" d="m460.391 1038.235 12.726 16.733 36.793-33.851-13.545-1.919-23.248 21.97-6.632-10.437zM460.391 1167.036l12.726 16.732 36.793-33.85-13.545-1.92-23.248 21.97-6.632-10.437z" opacity=".5"/><ellipse cx="466.345" cy="308.466" fill="#333c72" rx="19.155" ry="16.978" transform="rotate(-78.445 466.36 308.477)"/><ellipse cx="512.491" cy="306.155" fill="#333c72" rx="19.155" ry="16.978" transform="rotate(-78.445 512.507 306.166)"/><path fill="#422c2c" d="M396.136 354.543c-.183-14.143-22.023-13.994-21.982.174l.389 135.714c.043 15.026 23.544 14.865 23.35-.185l-1.757-135.703zM396.547 587.777c-.445-22.234.406-45.019-1.931-67.144-1.305-12.349-18.135-12.24-19.246.152-1.987 22.16-.775 44.927-.869 67.166-.094 22.387-.191 44.773-.218 67.161-.018 15.152 23.803 14.989 23.545-.186-.381-22.384-.832-44.766-1.281-67.149z"/><path fill="#333c72" d="M984.62 1401.491c-143.278-.26-286.555-.594-429.833-.66-40.048-.018-80.127-.422-120.169.29-5.042.09-5.065 7.727-.015 7.836 71.596 1.548 143.304.918 214.915 1.063l214.916.436 120.169.243c5.924.013 5.952-9.197.017-9.208z"/><path fill="#fff" d="M624.251 1363.325a4.516 4.516 0 0 0-4.507-3.883c-21.666.21-43.332.417-64.997.639-40.046.41-80.127.435-120.159 1.575-5.04.144-4.982 7.781.069 7.836 61.703.674 123.473-.268 185.195-.939 2.721-.03 4.806-2.444 4.414-5.136a1.753 1.753 0 0 1-.015-.092zM978.767 310.521c-22.64-1.353-45.363-1.211-67.999-1.671-22.664-.456-45.328-.907-67.993-1.352-45.713-.883-91.425-1.734-137.136-2.499-25.733-.421-51.486-1.053-77.202-.939-5.223.025-5.042 8.532.195 8.731 91.028 3.457 182.135 3.572 273.136 5.221 25.702.48 51.548 1.7 77.206 1.191 5.569-.108 5.38-8.349-.207-8.682z"/><path fill="#607cac" d="m450.716 394.454.206-3.18.138-2.12c.101-.931.153-2.087.155-3.469.024-1.799-.032-3.037-.165-3.714-.038-.386-.197-.804-.477-1.258a5.12 5.12 0 0 0-.281-.485l-.327-.534-.608-1.019-.697-1.021a14.111 14.111 0 0 1-1.117-1.604l-.424-.825-.424-.873-.656-1.165-.566-1.213-.611-1.166-.656-1.166-1.547-2.772a3.686 3.686 0 0 1-.425-.923c-.162-.549-.002-.837.479-.863.3-.06.525-.089.676-.087l.678.009.766-.086.721-.086a77.382 77.382 0 0 0 1.398-.126l2.03-.117c.662.009 1.105.305 1.328.886l.658 1.31.519 1.068.564 1.067c.592 1.004 1.239 2.442 1.939 4.313l.239.629.238.63.283.581c.155.259.306.261.451.005l.263-.43 2.064-5.126c.744-1.916 1.598-3.589 2.563-5.02.233-.35.577-.521 1.029-.515l1.448.116c.091.034.242.052.453.055l.271.004.363.052.498.055.544.104.498.055.451.006 1.042.111c.454.103.64.393.559.872a9.142 9.142 0 0 1-.168.623l-.129.334-.083.383a48.262 48.262 0 0 1-.592 1.962c-.056.224-.185.574-.385 1.053l-.475 1.099-1.901 4.256-.389.861-.171.479-.217.431-1.171 2.392-.563 1.148-.519 1.149c-.174.319-.226.752-.154 1.298.101 1.991.152 3.032.154 3.129l.2 5.439.065.963.063.914c.037.322.059.658.066 1.011l.017.866a.544.544 0 0 1 .009.433l-.042.192-.039.24c-.114.384-.35.574-.712.572l-1.131-.105-1.131-.056-2.758-.118-.316-.003-.315.046c-.211-.002-1.069.024-2.574.077-.662.028-1.031-.329-1.106-1.069l-.019-.964h-.045zM470.097 383.419c.049-.543.078-1.327.088-2.352l.03-.721-.013-.624c-.009-.448 0-.768.026-.96a26.242 26.242 0 0 1 1.113-5.269c.54-1.561 1.087-2.802 1.641-3.723.931-1.555 2.144-2.627 3.638-3.214a10.644 10.644 0 0 1 3.011-.774l.496-.041.586-.04 1.085.063.859.012c.182.035.363.053.544.056l.407.006.633.056.681.153a20.92 20.92 0 0 1 3.459 1.292 13.981 13.981 0 0 1 3.944 2.923c.491.485 1.082 1.384 1.772 2.7.69 1.379 1.314 3.186 1.873 5.422.364 1.629.515 3.096.451 4.4-.023.351-.023 1.083 0 2.198.041.543-.045 1.465-.26 2.769-.274 1.335-.878 2.715-1.813 4.141l-.218.381-.132.19-.176.237-.971 1.138-.309.332-.354.38a15.21 15.21 0 0 1-.843.758l-.845.663-.799.663c-1.483 1.137-2.796 1.765-3.937 1.884l-2.928.409c-2.347.11-4.272-.479-5.773-1.769l-.735-.581-.735-.629a12.66 12.66 0 0 1-.782-.678l-.367-.291-.277-.29c-.952-.903-1.854-2.303-2.705-4.199a16.847 16.847 0 0 1-1.28-5.149c-.066-.257-.072-.561-.018-.913l-.021-1.008-.046-.001zm18.839-2.103-.055-.479a5.251 5.251 0 0 0-.11-.959l-.399-1.87c-.62-2.336-2.021-3.853-4.204-4.55-.483-.07-.769-.089-.859-.058a7.728 7.728 0 0 0-1.443.126l-.54.136-.538.185c-1.133.594-1.988 1.479-2.566 2.654-.806 1.813-1.286 3.39-1.439 4.732-.047.67-.054 1.086-.02 1.246.017.832.2 1.697.55 2.595.486 1.7 1.446 2.987 2.879 3.863 1.28.747 2.355 1.044 3.226.892 1.08-.181 1.843-.462 2.287-.841 1.186-.882 2.081-2.07 2.683-3.563.372-.954.558-2.164.558-3.631l-.01-.478zM499.139 378.849l-.059-2.866c.053-.349.089-.794.108-1.335.044-.764.066-1.193.064-1.289.033-1.336.048-2.084.044-2.243l.017-1.385-.028-1.385c-.011-.509.238-.809.749-.897.509-.12 1.187-.079 2.035.123 1.449.211 2.669.244 3.661.098l.766-.085.225.003.272.051c.393.101.595.358.603.771l.03 1.478-.015 1.478a31.308 31.308 0 0 1-.159 3.24l-.038 2.574-.075 2.954-.089 2.287-.075.762c.026 1.24.304 2.371.837 3.393l.283.575c.095.223.19.415.283.574.747 1.183 1.716 1.446 2.907.791.953-.53 1.612-1.461 1.975-2.79.112-.38.208-.887.285-1.521l.074-.809.074-.809.304-2.805c.044-.762.066-1.205.063-1.332.048-.571.081-1.157.099-1.76l.009-1.761c.026-.158.003-.588-.072-1.287a13.445 13.445 0 0 1-.078-3.81c.051-.444.073-.839.066-1.189l-.069-1.144c-.009-.444.03-.729.118-.855.059-.062.314-.122.764-.18 1.021-.111 2.347-.078 3.977.104l.724.058.769.058 1.446.02.451-.041.452.006c.6-.055.878.234.831.867l-.068 1.045-.024 1.045c-.041.95-.072 1.647-.093 2.09l.018.856c.005.254-.019.539-.073.854l-.492 4.603-.334 3.513-.142 1.9c-.073.823-.15 1.471-.231 1.946-.216 1.234-.526 2.277-.929 3.128-.72 1.642-1.297 2.857-1.733 3.645-.724 1.389-1.634 2.554-2.729 3.497-.681.597-1.619 1.081-2.816 1.452l-.179.046-.225.046-.359.092c-.359.124-.84.184-1.442.178-.091 0-.828.026-2.212.078-1.202.118-2.49-.226-3.861-1.031a20.753 20.753 0 0 1-2.709-2.121 7.455 7.455 0 0 1-1.256-1.776c-.939-1.695-1.655-3.627-2.152-5.796a95.619 95.619 0 0 1-.161-1.243l-.057-.621-.104-.67c-.035-.222-.057-.604-.068-1.146l-.014-.717-.063-.86c-.055-1.21-.118-2.118-.191-2.724l.091.004zM534.817 391.686c.006.284.027.586.064.902.036.285.057.585.064.901l.037 1.802-.022 1.137c.009.411-.001.696-.027.853.011.538-.239.836-.75.895l-1.401-.011-.767.041-.587-.005-.631.042-.722.042-.632-.005a14.24 14.24 0 0 1-.993.04c-.603-.005-.941-.34-1.014-1.006-.04-.443-.098-1.076-.175-1.901l-.018-.902-.065-.951-.064-.95-.02-.95c-.035-1.71-.004-3.117.094-4.225l-.034-1.662c-.001-.063-.04-.443-.113-1.141-.214-3.042-.279-5.495-.197-7.363l-.009-.428-.019-5.319c-.003-.158.008-1.027.037-2.611l.076-.664c.023-.348.214-.598.572-.752.596-.308 1.315-.503 2.156-.586l4.149-.321.588.008.543.056.948.014c.452.006.738.027.86.06 1.656.056 3.18.188 4.57.397 1.42.241 2.448.461 3.085.658.515.165.941.392 1.279.681a9.695 9.695 0 0 1 2.652 3.773c.732 1.901 1.037 3.545.916 4.93-.121 2.898-1.167 5.487-3.137 7.766-.588.72-1.375 1.247-2.362 1.584-.389.122-.581.277-.577.467-.028.126.097.332.374.619l1.432 1.576c.307.319.646.638 1.014.956.246.224.553.51.921.861.337.287.797.717 1.382 1.29.644.573 1.089 1.003 1.336 1.289.123.127.555.604 1.294 1.43l.603.761.647.714.14.19c.219.412.15.71-.208.896l-1.258.367c-.389.091-1.29.242-2.701.451l-2.747.404-.271-.002-.27.045c-.36.06-.65-.1-.868-.48a59.584 59.584 0 0 1-.604-.809 138.99 138.99 0 0 1-.881-1.096 40.927 40.927 0 0 0-1.529-1.86 101.304 101.304 0 0 0-2.5-2.912l-.737-.718-.783-.719-1.289-1.198-.139-.144-.183-.144a.498.498 0 0 0-.362-.051c-.15.062-.22.298-.211.709l.044 2.279zm-.159-16.502.158 7.683c.011.538.272.778.783.72.06.001.105-.015.135-.046l.09.001c1.44-.269 2.767-.918 3.981-1.946a4.073 4.073 0 0 0 1.187-1.549c.574-1.382.546-2.74-.084-4.074-.472-1.016-1.193-1.625-2.16-1.827a20.271 20.271 0 0 0-.862-.153l-.452-.006-.498-.053a8.589 8.589 0 0 0-1.62.264c-.48.119-.7.448-.658.986zM728.495 374.196l.006.281c-.022.405-.228.651-.617.739a3.907 3.907 0 0 1-.722.037c-.421.057-1.112.11-2.074.159l-2.077.018-1.128.078-1.172.124c-.48.087-.714.412-.702.973-.018.593-.005 1.201.038 1.826l.016.749c.004.219.039.484.107.796.038.375.238.581.6.616a.89.89 0 0 0 .407.005l2.53.032c1.024.013 1.686.037 1.989.072a60.16 60.16 0 0 1 3.485.323c.543.038.85.369.924.992l.347 3.647c.072.561.109.904.112 1.028.009.437-.181.698-.571.788l-.631.087-.584.133c-.511.088-.917.115-1.218.08l-.226-.003-.182-.049-.406-.005c-.723-.039-1.552 0-2.482.113l-1.264.127-1.215.174-1.127.127c-.359.121-.535.322-.529.603-.04.998-.058 1.543-.056 1.637-.027.156-.035.514-.023 1.076.009.406.269.643.783.71.874.072 1.537.047 1.986-.073.569-.118 1.532-.172 2.888-.158l2.078.021.995.057 1.039.011c.301.003.482.021.543.052.364.098.564.333.602.706l.013.607.119 1.355.074 1.355c.033.187.03.731-.012 1.634l.012.56c-.051.436-.257.682-.617.741-.601.119-1.351.191-2.255.214l-.813-.007-.857.039-1.489.128c-.661.088-1.684.126-3.069.114-1.991-.173-3.796-.063-5.413.328-.99.209-1.817.265-2.481.166-.182-.065-.393-.067-.633-.005l-.631.041c-.602.026-.894-.258-.876-.851a9.987 9.987 0 0 1 .189-1.779l-.083-3.984c-.009-1.843.034-3.421.127-4.732a90.51 90.51 0 0 1 .187-4.028l.291-5.526.172-2.622c.032-1.311.045-2.17.037-2.576.048-.562.081-1.17.097-1.826l.144-1.731.109-1.264c.045-.717.399-1.087 1.06-1.109l.678.01c.24-.027.751-.035 1.535-.024l.768.012.769.058 1.353-.073c.24-.027.496-.04.767-.036l.632.01c.24-.027.919-.001 2.034.078 1.48.21 2.505.303 3.078.28.18-.028.631-.006 1.356.067.481.007.773.245.873.713.066.313.102.547.105.703l.026 1.215-.034.56.189 2.476zM721.438 446.915c.005.266.024.548.058.843.032.266.052.547.058.842l.034 1.685-.02 1.063c.008.384-.001.65-.025.797.01.503-.217.781-.68.836l-1.271-.012-.695.038-.533-.005-.573.039-.655.039-.574-.005a13.82 13.82 0 0 1-.901.037c-.547-.005-.854-.319-.92-.941l-.158-1.777-.017-.843-.059-.889-.058-.888-.018-.888c-.032-1.598-.004-2.914.085-3.95l-.031-1.554a36.292 36.292 0 0 0-.103-1.067c-.194-2.843-.253-5.137-.179-6.883l-.008-.4-.017-4.972c-.003-.147.007-.96.033-2.44l.069-.621c.021-.325.194-.559.519-.702.54-.287 1.193-.469 1.957-.546l3.764-.296.532.008.493.053.861.013c.41.007.669.026.78.057 1.503.054 2.886.179 4.147.376 1.288.227 2.222.433 2.799.619.467.155.854.367 1.16.637a9.098 9.098 0 0 1 2.407 3.529c.663 1.777.94 3.314.83 4.609-.11 2.709-1.059 5.127-2.846 7.256-.534.672-1.248 1.165-2.143 1.479-.353.114-.527.259-.524.436-.025.118.088.311.339.579l1.3 1.475c.279.298.586.597.92.894.223.21.502.478.836.806.306.268.723.67 1.254 1.207.585.537.988.938 1.213 1.206.111.119.504.565 1.175 1.338l.546.712.587.668.127.178c.198.385.136.664-.188.837l-1.141.342c-.354.085-1.171.225-2.451.419l-2.492.375-.246-.002-.245.042c-.327.056-.59-.094-.788-.45a51.242 51.242 0 0 1-.548-.757 99.249 99.249 0 0 1-.799-1.026 40.325 40.325 0 0 0-1.387-1.74 93.447 93.447 0 0 0-2.268-2.724l-.669-.671-.711-.672-1.17-1.121-.126-.134-.166-.135a.441.441 0 0 0-.329-.048c-.136.058-.2.278-.192.662l.041 2.128zm-.144-15.425.144 7.182c.01.503.247.728.71.674.054 0 .095-.014.122-.043l.082.001c1.306-.25 2.51-.855 3.611-1.815a3.785 3.785 0 0 0 1.077-1.447c.521-1.292.495-2.561-.076-3.809-.429-.95-1.082-1.52-1.96-1.71a18.094 18.094 0 0 0-.781-.144l-.41-.006-.452-.051a7.634 7.634 0 0 0-1.47.245c-.435.112-.635.42-.597.923zM580.9 384.321c.049-.522.078-1.276.088-2.261l.03-.693-.013-.601c-.009-.431-.001-.738.026-.923a24.404 24.404 0 0 1 1.112-5.063c.54-1.5 1.087-2.692 1.641-3.576.932-1.493 2.144-2.521 3.638-3.082a10.976 10.976 0 0 1 3.01-.737l.496-.038.586-.036 1.085.062.859.014c.181.034.362.052.543.054l.406.006.633.056.681.148c1.211.326 2.365.743 3.459 1.251a13.995 13.995 0 0 1 3.944 2.819c.491.467 1.082 1.333 1.771 2.599.691 1.327 1.315 3.066 1.873 5.217.363 1.566.514 2.978.451 4.232-.023.336-.023 1.041-.001 2.112.041.521-.045 1.408-.259 2.661-.274 1.283-.879 2.609-1.813 3.977l-.217.365-.132.183-.176.228-.971 1.093-.309.318-.353.365c-.295.272-.576.515-.843.727l-.845.635-.799.636c-1.484 1.09-2.795 1.691-3.937 1.804l-2.928.388c-2.347.101-4.271-.47-5.773-1.712l-.734-.56-.736-.606a13.166 13.166 0 0 1-.782-.654l-.367-.281-.277-.279c-.952-.871-1.854-2.218-2.705-4.043a15.686 15.686 0 0 1-1.28-4.954c-.066-.247-.072-.539-.018-.878l-.021-.969-.043-.004zm18.839-1.981-.055-.46a4.765 4.765 0 0 0-.11-.922l-.399-1.799c-.621-2.247-2.021-3.709-4.204-4.384-.483-.068-.769-.087-.859-.058a8.134 8.134 0 0 0-1.443.118l-.539.13-.538.177a5.67 5.67 0 0 0-2.566 2.545c-.806 1.741-1.286 3.257-1.439 4.546-.047.645-.054 1.044-.02 1.198.017.8.2 1.632.55 2.497.486 1.635 1.446 2.875 2.879 3.72 1.281.721 2.355 1.009 3.226.864 1.08-.172 1.843-.44 2.287-.803 1.186-.845 2.081-1.986 2.682-3.42.372-.916.558-2.079.559-3.49l-.011-.459zM607.237 439.891c.049-.523.078-1.276.088-2.262l.03-.693-.013-.6c-.009-.431-.001-.738.026-.923a24.404 24.404 0 0 1 1.112-5.063c.54-1.5 1.087-2.692 1.642-3.576.932-1.493 2.144-2.521 3.638-3.082a10.976 10.976 0 0 1 3.01-.737l.496-.038.586-.036 1.085.062.859.014c.181.034.362.051.543.054l.406.006.633.056.681.149a21.51 21.51 0 0 1 3.459 1.25 13.995 13.995 0 0 1 3.944 2.819c.491.467 1.082 1.333 1.771 2.599.691 1.327 1.315 3.066 1.873 5.217.364 1.566.515 2.978.451 4.232-.023.337-.023 1.041 0 2.113.041.521-.045 1.407-.259 2.661-.274 1.283-.879 2.609-1.813 3.977l-.217.365-.132.183-.176.228-.971 1.093-.309.318-.353.364c-.295.272-.576.515-.843.727l-.845.635-.799.636c-1.484 1.09-2.796 1.691-3.937 1.803l-2.928.388c-2.347.101-4.272-.47-5.773-1.712l-.735-.56-.736-.606a13.166 13.166 0 0 1-.782-.654l-.367-.28-.277-.279c-.952-.87-1.854-2.218-2.705-4.043a15.713 15.713 0 0 1-1.28-4.954c-.066-.247-.072-.539-.018-.878l-.021-.969-.044-.004zm18.839-1.981-.055-.46a4.765 4.765 0 0 0-.11-.922l-.399-1.799c-.621-2.247-2.021-3.709-4.204-4.384-.483-.068-.769-.087-.859-.058a8.134 8.134 0 0 0-1.443.118l-.539.13-.538.177a5.67 5.67 0 0 0-2.566 2.545c-.806 1.741-1.286 3.256-1.439 4.546-.047.645-.054 1.044-.02 1.198.017.8.2 1.632.55 2.497.486 1.635 1.446 2.875 2.879 3.72 1.28.721 2.355 1.009 3.225.864 1.08-.172 1.843-.44 2.287-.803 1.186-.845 2.081-1.986 2.683-3.42.372-.916.558-2.079.559-3.49l-.011-.459zM659.849 442.498c-1.174.104-3.884-.054-4.613-.042-.516.009-1.262-.084-1.643.596-.452.591-.953 1.133-1.56 1.566-.444.363-1.207.632-2.287.803-.871.145-1.945-.143-3.226-.865-1.433-.845-2.393-2.085-2.879-3.72-.35-.865-.533-1.697-.55-2.497-.034-.154-.027-.553.02-1.198.153-1.289.633-2.805 1.439-4.546a5.665 5.665 0 0 1 2.566-2.545l.538-.177.539-.13c.51-.085.991-.124 1.443-.118.09-.029.376-.01.859.058 1.235.382 2.199 1.035 2.932 1.922.03.006.284.587 1.4.317.151-.066 1.522-.438 1.673-.504.35-.152.923-.453 1.278-.594.559-.221 1.253-.404 1.817-.612.012-.006-.016.005 0 0 1.386-.414.667-1.325.423-1.648-.005-.007-.974-1.563-1.367-1.937a14.034 14.034 0 0 0-3.944-2.819 21.414 21.414 0 0 0-3.459-1.25l-.681-.148s-1.399-.38-3.675.127c-2.277.507-8.815.343-10.336 12.214a6.847 6.847 0 0 0-.026.923l.012.6-.03.693c-.01.985-.039 1.739-.088 2.262h.045l.021.97c-.054.338-.048.631.018.878a15.713 15.713 0 0 0 1.28 4.954c.851 1.825 1.753 3.172 2.705 4.043l.277.279.367.281c.277.249.537.466.782.654l.736.606.734.56c1.502 1.243 3.426 1.813 5.773 1.712l2.928-.388c1.141-.113 2.453-.714 3.937-1.803l.799-.636.845-.635c.267-.211.548-.454.843-.727l.353-.365.309-.318.971-1.093.176-.228.132-.183.217-.365c.695-1.017 1.185-2.007 1.512-2.976.665-1.558-.442-1.867-2.335-1.951zM686.719 440.185c.045-.482.072-1.177.081-2.086l.028-.639-.011-.554a5.938 5.938 0 0 1 .023-.851 22.523 22.523 0 0 1 1.026-4.671c.498-1.384 1.003-2.483 1.514-3.299.859-1.377 1.978-2.326 3.356-2.843a10.14 10.14 0 0 1 2.777-.68l.458-.035.541-.034 1.001.058.792.012c.167.031.334.048.501.05l.375.006.584.051.628.137c1.117.301 2.181.685 3.19 1.153a12.907 12.907 0 0 1 3.638 2.6c.453.431.998 1.23 1.634 2.398.637 1.224 1.213 2.828 1.728 4.812.335 1.445.475 2.747.416 3.904-.021.31-.021.96 0 1.949.038.481-.042 1.298-.239 2.454-.253 1.183-.81 2.406-1.673 3.668l-.2.337-.122.169-.162.21-.896 1.008-.285.294-.326.336a13.78 13.78 0 0 1-.778.67l-.78.586-.737.587c-1.369 1.005-2.579 1.56-3.632 1.664l-2.701.358c-2.165.093-3.94-.433-5.325-1.579l-.678-.517-.678-.559a11.702 11.702 0 0 1-.721-.603l-.339-.259-.256-.258c-.878-.803-1.71-2.046-2.495-3.729a14.504 14.504 0 0 1-1.181-4.57c-.061-.228-.066-.497-.017-.81l-.019-.894-.04-.001zm17.378-1.827-.051-.424a4.413 4.413 0 0 0-.102-.85l-.368-1.659c-.573-2.073-1.864-3.421-3.878-4.044-.446-.063-.709-.081-.793-.054a7.494 7.494 0 0 0-1.331.109l-.497.12-.496.164a5.229 5.229 0 0 0-2.367 2.348c-.743 1.606-1.186 3.004-1.328 4.194-.043.595-.049.963-.018 1.105.016.738.184 1.505.507 2.303.448 1.508 1.334 2.652 2.656 3.432 1.181.665 2.172.931 2.975.797.996-.159 1.7-.406 2.109-.741 1.094-.78 1.92-1.832 2.475-3.155.343-.845.515-1.918.515-3.219l-.008-.426zM617.96 383.167c-.026.183-.035.474-.026.871l.011.55-.03.687a27.565 27.565 0 0 1-.091 2.107l-.144 1.694-.127 2.519c-.018.55-.008 1.727.03 3.529.023 1.1.023 1.819 0 2.154.014.672-.324 1.036-1.016 1.09l-.723-.007-3.339.152-.723-.007-.722.039c-.483-.005-.728-.252-.739-.742a6.731 6.731 0 0 1-.033-1.56l.111-1.192.109-1.238c.022-.396.043-.84.062-1.33l.033-.551.035-.505-.012-.55a5.07 5.07 0 0 1 .03-.689l-.027-1.239.126-2.568c.03-1.407.044-2.187.041-2.34.047-.611.078-1.299.092-2.064l-.022-1.01.023-1.055-.015-.689.039-2.385-.035-1.653c.049-.52.079-1.253.089-2.202.01-.886.04-1.606.09-2.156.048-.549.141-1.145.278-1.786.081-.427.363-.637.845-.629l.767-.034.768.012.858-.032.812-.034.857-.077c.33-.056.616-.051.858.013l.544.055.497.008c.512.008.878.258 1.1.75l.192.553.142.277.095.23.658 1.201c.219.4.453.786.703 1.156a19.964 19.964 0 0 1 1.645 3c.377.769.721 1.353 1.03 1.754.803.957 1.875 2.482 3.215 4.573l.233.324.279.37c.031.062.216.262.555.602a.767.767 0 0 0 .217-.409l.041-.228-.003-.137.041-.182-.08-3.751.021-1.144a29.221 29.221 0 0 1 .043-2.24l-.028-1.326-.072-1.281-.012-.549a4.863 4.863 0 0 1 .03-.686l-.025-1.189.038-.32-.006-.275c-.011-.518.209-.789.66-.812.301-.025.977-.031 2.033-.014l.587.009.362.051.316.005.996.107.995.061c.514.07.866.333 1.056.794.125.215.222.521.29.918l.021 1.005c.025 1.158.056 1.904.093 2.239l.248 3.155c.07.457.127 1.006.171 1.645l.081 1.69.13 1.874a9.67 9.67 0 0 1 .04 1.872c-.037 1.096.012 1.948.145 2.558l.009.411-.057 1.551-.063 1.277-.017 1.324.025 1.142-.021 1.141.009.41-.036.457-.072.822-.08.501-.035.456-.161.912c-.022.396-.242.682-.66.861-.987.355-2.065.619-3.235.79l-.949-.009-1.854-.109-.951-.1c-.423-.065-.729-.297-.918-.695l-.663-1.424-1.454-2.532-.235-.414-.145-.413-.188-.368-.235-.415-.665-1.564-.377-.737-.376-.645-2.008-3.092c-.22-.429-.594-1.029-1.123-1.799l-.604-.833-.562-.923a1.068 1.068 0 0 0-.552-.466c-.088.091-.16.273-.214.547l.01.55zM688.701 383.898a6.031 6.031 0 0 0-.027.871l.012.55-.03.686a27.565 27.565 0 0 1-.091 2.107l-.144 1.694-.127 2.519c-.018.55-.008 1.727.03 3.529.023 1.1.023 1.819 0 2.154.014.672-.324 1.036-1.015 1.09l-.723-.007-3.339.152-.723-.007-.722.039c-.483-.005-.728-.252-.739-.742a6.731 6.731 0 0 1-.033-1.56l.111-1.192.109-1.238c.022-.396.042-.841.062-1.33l.033-.551.035-.505-.012-.55a5.07 5.07 0 0 1 .03-.689l-.027-1.239.126-2.569c.03-1.407.044-2.186.041-2.34.047-.611.078-1.299.092-2.064l-.022-1.01.023-1.055-.015-.689.039-2.385-.035-1.653c.049-.52.079-1.253.089-2.202.011-.887.041-1.606.09-2.156a14.7 14.7 0 0 1 .278-1.785c.081-.427.363-.637.845-.629l.767-.034.768.012.858-.032.812-.034.857-.078c.33-.056.616-.051.858.013l.543.055.497.008c.512.008.878.258 1.1.75l.192.553.142.277.095.23.658 1.201c.219.4.453.785.703 1.155a19.964 19.964 0 0 1 1.645 3c.378.769.721 1.353 1.031 1.754.803.957 1.875 2.482 3.214 4.573l.233.324.279.37c.031.062.216.262.555.602a.767.767 0 0 0 .217-.409l.041-.228-.003-.137.041-.182-.08-3.751.021-1.144a29.2 29.2 0 0 1 .042-2.24l-.028-1.326-.072-1.281-.012-.549a4.863 4.863 0 0 1 .03-.686l-.025-1.189.038-.32-.006-.275c-.011-.518.209-.789.66-.813.301-.025.977-.03 2.033-.014l.587.009.362.051.316.005.996.107.995.061c.513.07.865.333 1.056.794.124.215.221.521.291.918l.021 1.005c.025 1.158.056 1.904.093 2.239l.248 3.155c.069.457.127 1.006.171 1.645l.081 1.691.13 1.874a9.67 9.67 0 0 1 .04 1.872c-.037 1.095.012 1.948.145 2.558l.009.411-.057 1.551-.063 1.278-.017 1.324.025 1.141-.021 1.142.009.41-.036.457-.072.821-.08.501-.035.456-.161.912c-.022.396-.242.682-.66.861-.987.355-2.065.619-3.235.79l-.949-.009-1.854-.109-.951-.1c-.423-.065-.729-.297-.917-.695l-.663-1.424-1.454-2.532-.234-.414-.145-.413-.188-.368-.235-.415-.666-1.564-.377-.737-.375-.645-2.008-3.092c-.22-.43-.594-1.029-1.123-1.799l-.604-.833-.562-.923a1.068 1.068 0 0 0-.552-.466c-.088.091-.16.273-.214.547l.008.553zM655.94 398.252c-.181-.001-1.114.019-2.799.062l-.272-.048-.271-.003c-1.36-.195-2.385-.251-3.076-.167-.27.058-.616.054-1.039-.011l-1.086-.056-.994-.01c-.06.03-.225.044-.496.041-.363-.034-.593-.233-.691-.597l-.102-.546-.045-2.087-.224-1.999c-.101-1.876-.153-2.92-.157-3.131-.101-1.877-.152-2.89-.156-3.042-.006-.272-.007-1.708-.002-4.31l-.028-1.27c.05-.453.085-.921.105-1.405l-.015-.726.029-.771.052-1.768c-.033-1.542-.04-2.541-.02-2.994.009-.997.063-1.98.163-2.946-.001-.061.012-.106.042-.135l-.003-.136c.137-.633.491-.991 1.061-1.072a3.933 3.933 0 0 1 1.034-.21l.18-.043.27-.041.541-.082.45-.038.495-.082.994.016 2.353.22c.572.04.849.346.832.919l-.212 2.714-.212 2.714a8.173 8.173 0 0 0-.065 1.177l-.032.588.013.634-.066 3.214c.011.514.003.846-.024.996l-.075 2.808-.026.905-.027.86c-.024.302-.017.619.02.952.005.212.026.484.063.816.063.152.068.363.013.634l.016.725c.006.272.024.424.055.453.066.272.205.426.416.458.03.031.136.047.317.049l.543.052.544.051c.452.036.86.086 1.222.151l1.088.194 1.133.194c.241.034.634.083 1.177.15.573.067.966.118 1.178.149.513.036.805.281.875.733l.104.634.151.725c.103.574.19 1.147.263 1.721.067.302.103.574.108.814l.018.859c.013.604-.25.948-.79 1.032-.72.143-1.457.226-2.208.249-.541.055-.992.08-1.354.077l-1.351-.014zM678.627 440.976c.04 1.88.08 3.097.122 3.651l.035 1.664c.011.524.053 1.094.127 1.71.174 1.14.244 2.296.208 3.466.003.124-.016.647-.057 1.571-.02.493-.285.771-.795.834l-1.262.142-1.261.187a6.449 6.449 0 0 1-2.034-.042l-1.042-.136-1.042-.137c-.483-.03-.73-.323-.742-.878.024-1.728.033-2.7.029-2.917.025-.216.031-.679.016-1.389l-.018-5.139-.01-.509.081-.463c.026-.186.038-.354.035-.509l-.008-.37-.075-1.435-.121-1.436c-.013-.586-.005-.956.022-1.111l-.041-1.944a220.43 220.43 0 0 0-.158-3.195c-.005-.216-.023-.34-.053-.371-.097-.308-.281-.463-.552-.464l-.362-.001-.36.045c-.181 0-.421.03-.721.091a21.32 21.32 0 0 1-3.243.456h-.136l-.18.046c-.422-.001-.682-.187-.781-.559-.22-.432-.336-.943-.348-1.531-.007-.309-.061-1.452-.163-3.431a12.379 12.379 0 0 0-.305-1.577l-.001-.047c-.031-.03-.047-.077-.048-.139-.166-.711.142-1.096.924-1.155l1.31-.042 1.31-.041 1.174.004 1.131.051c.632.003 1.4-.024 2.302-.083l1.399-.087a38.12 38.12 0 0 0 1.893-.224c.331-.029 1.083-.041 2.258-.037l.903-.043.949.004 2.443.149c.452.033.904.035 1.355.005.572.003.88.297.923.882l.098 2.494.06 2.863-.037.369c-.05.524-.299.8-.75.829-.33.122-.719.183-1.17.182l-2.529.086-.407-.001a1.137 1.137 0 0 0-.452-.001c-.33.061-.491.261-.484.6l.016.74c.121 1.449.287 2.898.498 4.346.03.031.049.17.054.416l.073 3.561zM665.62 392.318l-.022-1.052-.069-1.097-.068-1.052-.05-2.331.032-.595.032-.594a1.96 1.96 0 0 0-.013-.594 4.116 4.116 0 0 0-.057-.548c-.067-.274-.074-.624-.022-1.052l.022-1.051-.012-2.697-.057-2.697.059-5.714.026-.869-.017-.823c.05-.486.269-.791.658-.911l.224-.045.18.001.18-.045h.09c.783-.027 1.823.054 3.123.243.091.031.242.046.452.047l.271.001.317.047.498.048.498.048.271.001c.813.003 1.244.416 1.292 1.238.042 1.979-.077 4.169-.357 6.57-.273 1.339-.302 2.784-.088 4.336l.055.457.011.502.175 1.826.13 1.871c.069.426.081.99.036 1.688l.041 1.917c.002 2.921.007 4.549.015 4.883.027 1.278.059 2.085.096 2.419.011.547-.071.912-.248 1.095-.177.182-.521.26-1.034.23l-2.713-.087-1.31.002-1.31.047c-.089.062-.209.062-.361.001-.453-.06-.699-.303-.738-.73l-.17-1.6-.024-1.143-.069-1.143.025-1.048zM605.094 435.09c0-.441-.029-.897-.088-1.366l-.397-1.851a10.32 10.32 0 0 0-1.322-3.614c-.822-1.528-2.115-2.806-3.878-3.835a11.578 11.578 0 0 0-3.923-1.499 10.228 10.228 0 0 0-1.197-.182c-2.714-.605-9.013-.474-9.258-.292-.835-.134-1.79.345-1.8 1.439l-.232 27.689c0 .061.011.121.019.182-.053.657.282 1.334 1.062 1.55 2.425.672 7.704.246 7.704.246.382.059 3.746-.559 4.187-.794l1.586-.749.838-.441c.294-.177.529-.324.706-.441 1.351-.823 2.291-1.704 2.821-2.644l1.586-2.776.309-.705c.147-.264.235-.5.264-.706.206-.764.382-1.542.529-2.336.353-1.793.529-3.643.529-5.553v-.661l-.045-.661zm-7.537 8.109c-.881 1.645-2.203 2.6-3.966 2.864l-1.102.132-2.724.416c.232-5.315-.109-10.579.259-15.886.083.014.806-.019.878.001.206.059.558.102 1.058.132l.529.044.529.088c.559.059 1.088.19 1.587.396.617.265 1.249.91 1.895 1.939l.969 2.204c.588 1.527.882 3.099.882 4.716-.059 1.147-.324 2.131-.794 2.954z"/><path fill="#fff" d="M970.385 460.292c-33.385-.329-66.824.993-100.185 1.773-4.034.096-3.86 6.462.182 6.42 33.375-.341 66.859-.118 100.196-1.514 4.28-.177 4.101-6.637-.193-6.679zM908.608 481.036c-12.453.131-24.962.471-37.394 1.137-3.958.213-3.794 6.259.178 6.305 12.455.143 24.969-.039 37.415-.423 4.445-.138 4.254-7.065-.199-7.019zM972.73 479.812c-16.505-.298-33.421.019-49.862 1.335-3.935.316-3.778 6.055.178 6.211 16.498.645 33.414.28 49.883-.675 4.403-.255 4.221-6.791-.199-6.871zM882.005 501.322c-3.713.09-7.421.292-11.124.555-3.849.273-3.692 6.054.174 6.134 3.713.077 7.428.093 11.14-.002 4.213-.108 4.03-6.789-.19-6.687zM972.824 498.458c-25.375.609-50.784.915-76.133 2.197-4.031.205-3.862 6.378.182 6.384 25.388.038 50.78-.885 76.157-1.489 4.551-.107 4.354-7.2-.206-7.092zM943.099 518.5c-23.56.367-47.793.031-71.231 2.548-3.789.409-3.642 5.858.171 6.047 23.543 1.163 47.719-.554 71.263-1.516 4.516-.184 4.323-7.149-.203-7.079z"/><path fill="#80788f" d="M1391.09 1492.316c0 5.025-75.832 4.74-181.595 4.74s-191.501 4.951-191.501-5.025c0-5.808 85.738-5.025 191.501-5.025 105.764.001 181.595.285 181.595 5.31z"/><path fill="#e7916d" d="m1300.774 1406.092.034.068a259.688 259.688 0 0 1 4.07 6.679c2.933 4.993 5.314 9.54 6.394 12.712.675 1.982 1.13 4.209 1.402 6.611 5.879-.131 11.743-.708 17.486-2.032 6.574-1.516 12.749-4.138 18.645-7.389 6.098-3.362 11.831-7.403 16.872-12.219a52.804 52.804 0 0 0 7.276-8.607 229.959 229.959 0 0 1-4.541-3.153c-4.356-3.101-9.162-6.792-14.308-11.412-4.327-3.884-10.388-10.138-15.133-15.539-11.503 6.779-22.277 16.728-28.77 20.922-10.227 6.605-10.716 10.535-10.117 12.28l.672 1.064.018.015z"/><path fill="#e7916d" d="m1300.756 1406.076.052.083-.034-.068a.098.098 0 0 1-.018-.015zM1300.756 1406.076l-.672-1.064c.222.644.589.992.672 1.064z"/><path fill="#fff" d="M1364.53 1448.054c16.069-18.169 33.984-21.823 25.59-32.862a9.587 9.587 0 0 0-.484-.602c-4.027-4.844-11.474-8.839-21.146-15.763-4.352-3.108-9.152-6.806-14.292-11.433l-.052-.047c-33.005 15.897-43.252 27.378-45.984 31.249 1.401 2.666 2.508 5.047 3.148 6.935 4.542 13.397 2.355 29.44-2.863 35.7-.384.461-.84.833-1.259 1.238-.415.415-.829.807-1.238 1.188-13.752 12.89-17.529 10.675-13.726 17.082 3.813 6.404 56.23-14.509 72.306-32.685z"/><path fill="#7312d3" d="M1389.582 1414.494c.175.195.33.398.484.601 8.41 11.027-3.106 18.576-19.149 36.769-5.325 6.038-15.03 16.222-25.87 27.021-21.831 21.75-61.009 13.046-64.333 9.339-9.914-11.054 9.285-11.605 23.018-24.516.408-.381.821-.775 1.236-1.19.422-.397.87-.782 1.257-1.24 8.049-9.524 2.155-20.507 6.049-32.436.776-4.594 4.163-5.626 9.393-4.979 10.355 1.276 23.898 2.524 33.431-5.857 6.047-5.319 11.104-14.026 13.315-19.244 9.682 6.909 17.134 10.893 21.169 15.732z"/><path fill="#fff" d="M1390.066 1415.094c-.155-.203-.309-.406-.485-.601-1.08-1.295-2.412-2.529-3.959-3.774-3.434 8.403.352 16.246-3.771 21.441-4.862 6.127-12.283 13.322-25.846 27.908-13.563 14.587-29.173 26.102-39.665 27.528-10.403 1.414-37.046-1.834-37.495-1.889.41.835 1.093 1.651 1.868 2.516 3.325 3.707 42.503 12.411 64.334-9.339 10.839-10.799 20.545-20.983 25.869-27.021 16.044-18.193 27.56-25.742 19.15-36.769z"/><path fill="#616aa6" d="M1285.912 1230.183c-5.3-59.221.757-84.227 1.514-141.77.159-12.068.329-23.937.499-35.163.451.321.932.577 1.448.699a.25.25 0 0 0 .279-.363c-.428-.824-1.067-1.548-1.698-2.276.63-41.376 1.244-73.523 1.244-73.523s-20.701-19.602-33.189-10.737-36.726 94.862-43.6 114.881c-6.875 20.019-7.079 71.954-7.484 107.739-1.377 121.745 72.91 222.778 72.91 222.778 16.291 7.974 62.231-40.686 62.231-40.686s-48.854-82.358-54.154-141.579z"/><path fill="#333c72" d="m1287.631 1073.387.051-3.602c-4.528-10.49-3.842-23.053-3.344-34.331l.586-13.263c1.19-.07 2.362-.263 3.502-.57l.043-2.604a14.86 14.86 0 0 1-4.719.753c-.682-.001-1.201.564-1.227 1.227-.349 8.902-.934 17.834-.918 26.744.014 7.898.9 16.035 4.561 23.15.446.867.936 1.698 1.465 2.496zM1302.446 1383.659c-14.744-25.731-44.288-94.035-46.204-100.796-.94-3.319.102-6.978 1.021-10.207.692-2.432 1.346-4.728.714-5.778-.212-.352-.596-.583-1.176-.707-3.667-.78-8.272-2.374-9.386-5.537-.634-1.797-.057-3.811 1.714-5.984 3.827-4.697.794-8.98-3.404-14.909-.972-1.373-1.976-2.791-2.952-4.304-5.235-8.115-6.38-52.139-6.426-54.008l1.482-.037c.011.454 1.179 45.474 6.19 53.242.959 1.486 1.954 2.891 2.917 4.25 4.229 5.974 7.883 11.132 3.344 16.703-1.422 1.745-1.916 3.278-1.465 4.555.691 1.962 3.637 3.588 8.296 4.579.99.211 1.709.679 2.138 1.391.964 1.603.259 4.079-.558 6.948-.865 3.04-1.846 6.484-1.021 9.398 2.05 7.234 32.234 76.328 46.063 100.461l-1.287.74z" opacity=".49"/><path fill="#af4344" d="M1259.575 640.099c-.986-2.212-3.065-3.964-5.253-4.913-1.056-.458-2.288-.802-3.509-.868 1.111-1.797 2.089-4.942-.882-8.695-4.681-5.911-11.592-7.92-11.592-7.92s1.68-6.403-8.643-10.624c-10.323-4.221-26.606-.835-26.606-.835s1.109-3.607-11.322-1.483c-12.431 2.125-25.874 1.778-28.98 10.864-3.106 9.086 4.29 18.712 4.29 18.712 1.126-1.671 2.72-3.189 4.552-4.529-6.795 15.486 17.903 53.763 25.689 60.131 8.6 7.033 21.342 14.489 21.342 14.489s16.519-18.928 17.03-28.13c.321-5.779 15.046-15.91 17.857-24.372 2.302-6.931-1.886-13.229-3.477-15.281l.183.03c.497.085.986.21 1.464.371.537.181.807.297 1.291.539 1.864.929 3.056 2.203 4.032 3.997.379.696 1.34.918 2.009.526.744-.437.849-1.282.525-2.009z"/><path fill="#e38e6b" d="M1223.104 718.98s-4.065-4.01-4.273-13.095c-.208-9.084-16.533-13.789-18.877-27.299 0 0 6.967 2.473 10.926-6.862 3.959-9.335-1.681-19.504-7.508-19.673-7.946-.231-10.232 9.117-12.382 7.462-2.15-1.655-3.032-9.054-2.496-14.498.536-5.444-12.894-9.704-12.031-19.468.269-3.039-12.537 10.199-14.247 20.414-1.71 10.215-15.397 17.116-16.865 20.865-1.468 3.749 4.818 6.922 6.268 7.896 1.45.974-3.182 21.643.768 27.665 3.95 6.022 13.236 4.056 19.079 9.14 5.843 5.085 18.754 32.888 18.754 32.888l32.884-25.435z"/><path fill="#d5764b" d="m1150.904 672.139 2.877 1.377c.274.131.555.195.857.112.258-.071.537-.271.665-.511.136-.258.205-.571.112-.857-.085-.263-.253-.541-.511-.665l-2.877-1.377c-.274-.131-.555-.195-.857-.112-.258.071-.537.27-.665.511-.136.258-.205.571-.112.857.085.263.253.542.511.665zM1197.454 684.76c-3.722-1.824-5.474 9.268-12.918 15.399-7.389 6.085-25.34 6.512-25.605 6.518 4.133 1.267 8.972 1.75 12.535 4.85 1.761 1.532 4.164 5.133 6.662 9.409 10.79-6.302 22.901-34.425 19.326-36.176z"/><path fill="#1a1a1a" d="M1163.148 654.476a3.65 3.65 0 0 0-.105.402 5.075 5.075 0 0 0-.077.589c-.01.193.031.408.06.588.093.582.503 1.094.991 1.404.312.199.625.267.987.297.115.01.212-.011.332-.027.263-.035.458-.077.701-.228.421-.262.732-.644.99-1.062.405-.654.614-1.427.642-2.192.003-.07.004-.141 0-.211-.016-.273-.069-.535-.21-.775a1.687 1.687 0 0 0-.551-.551 1.837 1.837 0 0 0-.643-.267 2.416 2.416 0 0 0-1.04.004 2.412 2.412 0 0 0-.653.256 2.734 2.734 0 0 0-.806.657 4.756 4.756 0 0 0-.416.558c-.127.211-.216.448-.308.675a2.232 2.232 0 0 0-.13.406c-.051.25-.102.523-.083.781.018.241.04.494.129.721.148.377.275.62.556.922.078.083.174.149.263.218.09.07.175.143.276.196.331.173.669.271 1.044.279a2.136 2.136 0 0 0 1.561-.671c.324-.354.541-.76.68-1.219.049-.161.069-.323.092-.491.023-.172.052-.342.042-.516-.037-.619-.227-1.167-.654-1.625-.492-.528-1.232-.699-1.92-.541a1.76 1.76 0 0 0-.609.264c-.285.199-.518.405-.698.709-.161.273-.274.642-.26.96.007.161.03.341.076.496.098.328.229.504.451.761.246.285.721.45 1.086.45.377 0 .827-.167 1.087-.45.269-.293.468-.677.45-1.087l-.055-.408a1.542 1.542 0 0 0-.395-.678l-.017-.02.24.311a.509.509 0 0 1-.039-.063l.155.367a.302.302 0 0 1-.019-.065l.055.409a.364.364 0 0 1-.001-.066l-.055.408a.427.427 0 0 1 .022-.087l-.155.367a.594.594 0 0 1 .061-.103l-.24.311a.711.711 0 0 1 .091-.091l-.311.24a.722.722 0 0 1 .161-.094l-.367.155a.64.64 0 0 1 .128-.035l-.408.055a.628.628 0 0 1 .13-.002l-.408-.055a.493.493 0 0 1 .1.027l-.367-.155a.527.527 0 0 1 .096.059l-.311-.24a.818.818 0 0 1 .113.115l-.24-.311a.876.876 0 0 1 .094.166l-.155-.367c.028.073.046.145.059.222l-.055-.408c.018.138.014.275-.004.413l.055-.409a2.055 2.055 0 0 1-.132.475l.155-.367a1.477 1.477 0 0 1-.16.285l.24-.311a.988.988 0 0 1-.145.151l.311-.24a.838.838 0 0 1-.146.089l.367-.155a.667.667 0 0 1-.17.045l.408-.055a.718.718 0 0 1-.139-.003l.408.055a.76.76 0 0 1-.167-.049l.367.155a1.028 1.028 0 0 1-.153-.091l.311.24a1.026 1.026 0 0 1-.155-.154l.24.311a1.059 1.059 0 0 1-.114-.188l.155.367a1.017 1.017 0 0 1-.064-.225l.055.409a1.375 1.375 0 0 1-.001-.351l-.055.409a2.21 2.21 0 0 1 .149-.516l-.155.367c.079-.183.172-.352.293-.51l-.24.311a2.08 2.08 0 0 1 .32-.323l-.311.24c.095-.073.195-.135.306-.183l-.367.155c.073-.029.146-.05.223-.062l-.408.055a.813.813 0 0 1 .191.001l-.409-.055c.054.01.104.024.156.044l-.367-.155a.94.94 0 0 1 .12.067l-.761-1.327c.005.169-.003.337-.026.505l.055-.409a3.034 3.034 0 0 1-.203.73l.155-.367a2.99 2.99 0 0 1-.359.619l.24-.311c-.067.086-.135.17-.219.241l.311-.24a.738.738 0 0 1-.101.062l.367-.155a.532.532 0 0 1-.094.028l.409-.055a.54.54 0 0 1-.127 0l.408.055a.612.612 0 0 1-.124-.038l.367.155a.834.834 0 0 1-.115-.069l.311.24a.872.872 0 0 1-.122-.121l.24.311a.787.787 0 0 1-.087-.148l.155.367a.834.834 0 0 1-.048-.197l.055.409a1.354 1.354 0 0 1 .003-.27l-.055.408c.023-.168.069-.33.118-.492.114-.375.041-.849-.155-1.184-.187-.319-.552-.623-.918-.706-.393-.089-.835-.07-1.184.155-.34.22-.585.524-.704.918z"/><path fill="#af4344" d="M1166.454 644.742a16.501 16.501 0 0 1 1.439.486c.066.026.159.047.217.087-.242-.168-.07-.03.022.011a15.911 15.911 0 0 1 3.075 1.79c.062.046.127.091.187.141-.093-.077-.15-.119-.024-.016.543.447 1.061.914 1.548 1.422.537.561 1.563.581 2.097 0 .553-.602.573-1.498 0-2.097a17.48 17.48 0 0 0-7.771-4.682c-.745-.214-1.647.261-1.824 1.036-.181.789.236 1.592 1.034 1.822z"/><path fill="#fff" d="M1152.202 683.294s3.682-.245 5.973.246-1.417 8.916-4.418 9.655c-3.001.739-1.555-9.901-1.555-9.901z"/><path fill="#616aa6" d="M1194.454 1430.827s31.574-232.722 48.942-277.909c8.367-36.995 27.877-119.169 33.935-150.767 6.057-31.598 34.323-69.321-26.248-70.145-60.571-.824-82.802 50.706-82.802 50.706s-17.056 127.155-24.279 191.677c-7.274 64.971-27.684 240.312-27.684 240.312l78.136 16.126z"/><path fill="#1a1a1a" d="m1161.62 1416.731-2.557 11.271c15.619 4.71 30.649 7.56 35.233 3.032.052-.071.107-.135.158-.207 4.049-5.77-32.834-14.096-32.834-14.096z"/><path fill="#e7916d" d="M1169.095 1456.031c-.786-5.289-1.459-11.312-1.7-18.223-.202-5.811-.099-12.25.502-19.414-12.861-3.587-27.301-6.716-34.824-8.486-11.851-2.788-15.022-.416-15.863 1.226l-.301 1.222a.4.4 0 0 1 .001.024l-.025.071a264.43 264.43 0 0 1-1.99 7.564c-1.564 5.575-3.188 10.444-4.725 13.422-6.485 12.572-27.674 25.648-44.181 32.443-.553.233-1.095.446-1.638.659-.543.223-1.076.427-1.599.62-17.651 6.611-36.883 12.64-35.835 20.016 7.374 1.764 80.802 6.354 105.044 5.297 24.233-1.056 38.269 4.192 40.382-9.514.039-.252.077-.504.097-.766.688-6.261-1.61-14.394-3.345-26.161z"/><path fill="#e7916d" d="m1116.909 1412.355-.024.095.025-.071-.001-.024zM1116.909 1412.355l.301-1.222c-.31.606-.307 1.112-.301 1.222z"/><path fill="#fff" d="M1130.887 1487.414c24.234-1.021 39.29 9.353 41.423-4.35.039-.252.078-.504.098-.766.697-6.261-1.588-14.397-3.306-26.167-.778-5.291-1.443-11.314-1.673-18.225l-.002-.07c-34.341-12.758-49.718-12.179-54.402-11.463-.949 2.858-1.898 5.307-2.814 7.076-6.503 12.563-26.609 26.568-43.126 33.339-.553.232-1.096.444-1.639.657-.543.222-1.077.425-1.6.618-17.661 6.585-24.458 9.271-23.421 16.649 1.044 7.38 66.218 3.723 90.462 2.702z"/><path fill="#7312d3" d="M1172.439 1482.193c-.019.262-.058.514-.097.766-2.113 13.706-15.538 10.643-39.771 11.7-24.243 1.057-103.206-.445-105.655-7.483-4.88-14.023 18.184-13.406 35.836-20.016a48.604 48.604 0 0 0 1.599-.62 44.134 44.134 0 0 0 1.638-.659c28.038-11.817 31.209-23.972 42.504-29.438 3.848-2.627 6.94-.901 10.1 3.315 6.262 8.346 14.753 18.969 27.402 20.026 8.026.669 17.806-1.725 23.099-3.751 1.736 11.765 4.034 19.898 3.345 26.16z"/><path fill="#fff" d="M1172.343 1482.958c.039-.252.077-.504.097-.765.237-2.154.115-4.536-.21-7.203-24.586 4.625-25.242 10.714-32.332 11.929-7.151 1.226-47.737 2.446-70.962.74-18.703-1.373-36.454-3.537-42.662-4.328-.047 1.147.147 2.416.643 3.844 2.449 7.038 81.413 8.54 105.655 7.483 24.232-1.057 37.657 2.006 39.771-11.7z"/><path fill="#333c72" d="M1264.198 1042.646a8547.053 8547.053 0 0 0-40.211 201.009 8497.874 8497.874 0 0 0-10.418 56.57c-.339 1.874 2.549 2.553 2.889.673a8595.334 8595.334 0 0 1 18.805-100.629 8582.954 8582.954 0 0 1 31.826-156.95c.395-1.868-2.494-2.541-2.891-.673z"/><path fill="#333c72" d="M1247.594 1023.883c-5.489.969-10.937 1.8-16.516 2.021a100.484 100.484 0 0 1-16.595-.734c-.923-.117-1.542.839-1.615 1.615-.911 9.587-1.412 19.42-.825 29.048.229 3.756 1.522 17.546 8.081 20.344 3.125 1.333 3.34-1.24 2.053-2.312-1.388-1.156-6.941-3.715-7.827-19.728-.534-9.647.039-16.907 1.471-25.57 10.05 1.219 20.6 1.116 30.539-.99-.076 7.567-.783 15.131-1.776 22.627-.524 3.954-.943 7.993-2.074 11.83-.999 3.387.172 6.044 1.633 2.856 1.695-3.7 2.289-7.771 2.924-11.757.681-4.276 1.196-8.58 1.602-12.89.462-4.908.747-9.832 1.033-14.753.068-1.17-1.113-1.782-2.108-1.607z" opacity=".49"/><path fill="#e38e6b" d="M1011.796 854.504s4.6 10.157 16.926 13.623c12.326 3.467 53.255 12.736 53.255 12.736s-1.955 39.476-6.192 47.951c-4.237 8.474-52.621-29.578-70.895-20.399-13.839 6.952 6.906-53.911 6.906-53.911z"/><path fill="#7312d3" d="M1170.326 773.445s2.925-20.454 26.816-39.237c7.587-5.965 16.206-12.052 24.781-17.487 0 0-1.844-5.199-1.119-5.65 17.668-10.981 38.053-14.628 45.084-12.71 10.726 2.925-1.95 13.172 0 20.725 1.95 7.553 10.726 19.743 9.264 30.469-1.463 10.727-13.652 15.167-13.652 15.167s12.189 41.781 17.065 74.984c4.876 33.203 3.413 58.85 13.652 92.833 10.239 33.982 1.463 49.337-1.95 52.386s-77.523 1.6-83.374 4.518c-5.851 2.919-37.471-26.576-39.909-54.612 0 0-.532 1.656-19.059 6.045-18.527 4.388-17.687-1.398-28.988 0-7.89.976-24.517-5.82-26.436-5.692-18.465 1.229-34.557-6.532-33.451-10.205.427.087 2.497 1.188 2.895 1.339 5.661-9.471 12.144-47.256 12.144-47.256s20.317 3.782 26.358 2.134c14.297-3.901 39.163-5.851 41.113-10.239 1.95-4.388 7.788-7.004 13.172-16.167 3.672-6.249 12.002-31.615 13.555-45.266 1.551-13.651 2.039-36.079 2.039-36.079z"/><path fill="#7312d3" d="M1147.925 1022.798s4.785-15.888 7.381-23.278c2.596-7.39-.136-38.259 4.611-52.67 4.748-14.41 15.832-15.294 13.985-29.817-1.848-14.523-1.109-27.455-1.109-27.455s14.041-15.998 14.41-34.787c.37-18.79-4.064-84.929 8.129-105.621 12.193-20.692 35.841-25.495 46.187 9.607 10.346 35.102 17.736 56.533 14.78 87.201-2.956 30.668-5.173 59.791-9.607 64.443-4.434 4.652-2.217 9.825-3.325 20.91-1.109 11.085-8.129 38.058-17.366 47.665s-17.109 28.652-17.848 31.239c-.739 2.586-3.092 26.129-12.077 23.964-8.985-2.164-48.151-11.401-48.151-11.401z"/><path fill="#d5764b" d="M1135.59 1065.47s-5.164 10.047-5.343 13.53c-.29 5.633 6.802 2.5 6.802 2.5l-1.459-16.03z"/><path fill="#e98e62" d="M1194.095 1028.68c-8.376-4.429-39.569-6.79-39.569-6.79s-.386 1.349-4.193 13.574c-2.23 7.162-19.478 23.51-14.763 43.521 5.374 22.808 9.534 17.062 12.712 19.365 3.178 2.303 3.756 8.659 7.223 8.659s4.13-3.818 6.441-4.684c2.311-.867 2.667-1.077 4.18-3.974 1.513-2.898 3.535-5.787 5.846-7.52 2.311-1.734 2.311-10.978 4.045-16.468 1.518-4.807 8.057-23.828 9.66-28.485.965-5.978 11.859-15.379 8.418-17.198z"/><path fill="#030408" d="m1154.525 1021.889-1.758 6.41s-4.546-1.481-4.839-4.814c-.174-1.98 6.597-1.596 6.597-1.596z"/><path fill="#d5764b" d="M1139.096 1072.243c1.015-1.131 2.128-.992 3.354-.342 1.509.8 2.907.445 4.421-.167 1.547-.625 3.072-1.567 4.76-1.749.754-.081 1.471.007 2.132.39.729.423 1.252 1.01 2.07 1.305 1.373.495 2.801.167 4.162-.2 1.499-.404 2.528-.598 3.706.568 1.035 1.025 1.909 2.075 3.319 2.594 1.396.514 2.833.32 3.924-.714h-2.097l2.889 2.572c1.421 1.266 3.526-.825 2.097-2.097l-2.889-2.573c-.61-.543-1.487-.578-2.097 0-.846.801-2.444-1.27-2.923-1.753-1.029-1.038-2.213-1.847-3.716-1.931-1.473-.082-2.795.549-4.217.775-1.588.252-2.497-1.181-3.929-1.647-1.447-.471-3.08-.303-4.51.147-1.627.511-3.213 1.707-4.902 1.955-.711.105-1.11-.327-1.762-.599a5.012 5.012 0 0 0-2.045-.39 5.32 5.32 0 0 0-3.844 1.757c-1.271 1.419.819 3.523 2.097 2.099zM1150.305 1097.589c-2.075-4.453-3.198-9.318-3.337-14.226-.054-1.904-3.019-1.912-2.966 0 .154 5.457 1.438 10.778 3.742 15.722.338.726 1.383.909 2.029.532.744-.434.871-1.299.532-2.028z"/><path fill="#bf1e21" d="M1246.212 787.563c5.023 14.308 7.384 29.352 8.074 44.465.701 15.355-.214 30.733-1.552 46.028-.332 3.789-.69 7.576-1.059 11.362-.182 1.866-.352 3.735-.553 5.599-.19 1.759-.464 3.603-1.349 5.164-.855 1.508-2.213 2.63-3.379 3.886-1.084 1.169-2.022 2.472-2.728 3.904-1.426 2.895-2.026 6.066-2.338 9.256-.299 3.059-.288 6.136-.492 9.201a99.632 99.632 0 0 1-.946 8.529c-.932 6.064-2.322 12.06-4.095 17.933-3.48 11.525-8.407 23.198-16.045 32.622a55.31 55.31 0 0 1-2.631 3.012c-1.306 1.39.787 3.491 2.097 2.097 8.255-8.788 13.663-20.086 17.619-31.362 4.046-11.532 6.678-23.724 7.12-35.957.12-3.31.2-6.659.942-9.9.769-3.356 2.298-5.94 4.699-8.374 1.213-1.23 2.392-2.514 3.117-4.102.735-1.609 1.058-3.312 1.276-5.056.475-3.799.771-7.63 1.13-11.442 1.462-15.529 2.643-31.124 2.319-46.733-.317-15.289-2.109-30.65-6.538-45.325a132.273 132.273 0 0 0-1.83-5.593c-.626-1.791-3.492-1.022-2.858.786zM1199.992 1004.102c-7.275-2.842-14.804-5.11-22.39-6.957-7.068-1.721-14.311-2.611-21.513-1.757-.127 1.172-.285 2.191-.48 3.036 7.365-1.041 14.776-.02 21.986 1.773 7.319 1.82 14.581 4.02 21.609 6.765 1.778.694 2.549-2.172.788-2.86zM1168.033 933.586c5.293-6.626 7.496-14.929 7.65-23.313.079-4.288-.379-8.561-1.149-12.775-.465-2.547-1.021-5.162-.709-7.764.264-2.204 1.269-4.219 2.406-6.093 2.334-3.846 4.868-7.414 6.638-11.584 1.755-4.135 2.981-8.463 3.785-12.88 1.684-9.25 1.634-18.67 1.203-28.028-.542-11.77-1.619-23.648-.036-35.386.108-.8-.193-1.582-1.036-1.824-.689-.198-1.717.243-1.824 1.036-2.667 19.78 1.909 39.683-.558 59.464-1.109 8.894-3.854 17.304-8.837 24.786-2.486 3.733-4.8 7.498-4.784 12.137.016 4.565 1.436 9.061 1.78 13.615.697 9.208-.705 19.101-6.625 26.512-1.181 1.477.904 3.589 2.096 2.097zM1183.268 765.47c11.86-21.85 33.821-35.329 55.934-45.069 6.855-3.02 13.832-5.752 20.814-8.462 1.76-.683.995-3.552-.788-2.859-24.003 9.319-48.87 19.419-66.767 38.679-4.557 4.903-8.558 10.329-11.753 16.215-.912 1.677 1.648 3.175 2.56 1.496z"/><path fill="#bf1e21" d="M1218.318 731.012c9.824.067 20.638 4.732 26.876 12.453 1.199 1.485 3.286-.625 2.097-2.097-3.252-4.025-7.728-7.084-12.371-9.289-5.186-2.463-10.84-3.993-16.602-4.033-1.908-.012-1.91 2.953 0 2.966z"/><path fill="#7f2b30" d="M1221.923 716.721s27.58-10.238 29.688-13.4c1.939-2.909-20.7 4.883-30.556 10.605.376 1.404.868 2.795.868 2.795z"/><path fill="#f8d8d0" d="M1163.494 895.719c1.143-25.46 4.236-50.79 5.204-76.258.29-7.616.381-15.238.258-22.859-.031-1.906-2.996-1.912-2.965 0 .413 25.523-2.143 50.858-4.06 76.273-.573 7.607-1.06 15.221-1.402 22.843-.086 1.909 2.88 1.904 2.965.001z"/><path fill="#bf1e21" d="M1100.365 886.971c.008-1.908-2.958-1.911-2.965 0-.062 15.098-1.262 30.445-6.61 44.694a73.009 73.009 0 0 1-1.494 3.642 58.9 58.9 0 0 0 3.205-.123c.008 0 .021.002.03.001 4.539-11.009 6.632-22.917 7.41-34.83.29-4.455.405-8.92.424-13.384zM1227.085 925.326c7.568-1.306 14.347-6.493 17.591-13.454.338-.725.204-1.598-.532-2.029-.642-.375-1.689-.197-2.029.532-2.96 6.351-8.915 10.899-15.819 12.091-.79.136-1.233 1.106-1.036 1.824.231.835 1.033 1.173 1.825 1.036z"/><path fill="#a8b9cb" d="M1025.956 862.323c-14.583-4.309-50.378-16.903-50.046-21.875.331-4.972 14.656 4.516 23.089-.065 8.432-4.581 6.091-11.577-.93-11.722-7.021-.145-26.718-9.04-32.684-9.04-5.966 0-36.959 14.63-36.959 14.63s-19.976-5.894-29.749-4.67c-.001 0-3.142-1.677-11.537-5.599.206-.95-.118-1.959-1.28-2.523l-4.468-2.173c1.322-2.201 2.783-4.527 4.415-6.869 3.621-5.197 5.595-14.54 8.979-19.882 6.355-10.032 11.304-18.945 11.129-21.573v-.001c2.267-5.108-5.555-25.73-5.555-25.73 4.509-8.387 9.741-18.223 12.725-24.191 13.915 14.705 28.297 27.412 37.214 28.417.425.047.838.071 1.24.071.785 0 1.513-.118 2.21-.299 3.173 2.207 7.308-.28 8.601-2.172 1.725-2.527.97-7.178-2.372-9.335-3.343-2.157-6.039-.108-8.087 3.019-1.218 1.859-1.291 3.09-1.151 3.786-7.601-.962-21.287-13.335-35.099-28.1 5.359-8.94 14.01-20.399 17.761-30.478 9.718 11.029 21.907 25.574 27.153 34.759a4.564 4.564 0 0 0-1.007 1.593s-1.655 5.333 1.941 7.757c5.766 3.888 8.626-1.611 8.734-6.356.053-2.333-2.06-3.947-4.451-4.379-5.624-10.451-20.251-27.685-30.744-39.471.154-1.07.232-2.115.199-3.121-.424-13.141-8.902-28.826-14.837-27.13-5.935 1.696 2.543-12.472-6.783-16.198-9.326-3.726-4.633-12.212-11.007-12.844-6.373-.632-7.645 4.023-13.58 0-3.709-2.515-7.153.352-9.214 2.855l-.017-.002c-.408 0-.772.091-1.094.243-5.643-3.885-54.906-37.744-96.308-64.405.527-3.605 1.252-7.811 2.009-11.933 12.839 7.012 25.591 10.217 32.474 3.965 7.767-7.055 21.984-38.822 30.145-62.731.614-.458 1.097-1.101 1.466-1.774.508-.924.854-1.968.834-3.034-.002-.086-.022-.169-.027-.254.034-.134.071-.268.101-.404.139-.641.187-1.22.101-1.861-.008-.061-.024-.12-.035-.181 1.817-5.924 3.089-11.008 3.559-14.593.23-1.756.407-3.568.536-5.414a2.618 2.618 0 0 0 2.381-.818 2.623 2.623 0 0 0-.175-3.706 36.077 36.077 0 0 0-1.954-1.653c.034-2.427-.003-4.872-.106-7.296.057.493.681 3.771 7.018 1.011 6.836-2.977 4.547-5.77 8.062-8.364 14.426-10.646 19.052-40.415 4.763-62.444-14.289-22.029-28.283-13.477-28.283-13.477s-.893-7.601-20.908-19.393c-15.96-9.403-33.864-18.482-61.255-9.849-11.072 3.489-15.274 10.536-16.724 14.023a41.56 41.56 0 0 0-14.722-9.977 2.623 2.623 0 1 0-1.943 4.874c4.239 1.69 8.184 4.257 11.535 7.419-5.616.548-15.336 2.241-21.829 7.476-9.599 7.74-5.729 32.379-5.729 32.379s-12.801 22.991-7.442 42.638 16.148 31.624 16.148 31.624 5.432 14.188 3.572 20.157c-1.26 4.046 1.079 9.018 4.095 9.871a3525.048 3525.048 0 0 0-10.066 28.778c-12.171-3.528-19.053-1.176-22.85 1.892-2.453 1.983-4.915 5.331-5.78 10.876-16.108 5.591-37.447 13.998-44.547 16.827-.818.289-1.621.616-2.412.967l-.003.001c-27.849 12.343-38.693 63.008-10.199 149.305 4.035 12.222 7.966 23.498 11.83 33.923-.087 66.076-1.054 136.878-4.066 188.001-7.418 125.921-17.552 216.453-23.544 287.488 10.52 2.83 23.926 5.287 38.991 7.379-2.451 21.339-5.488 46.362-8.643 68.916-12.04 86.06-32.682 164.589-32.682 164.589h51.773c25.322 0 86.888-.838 86.888-.838s24.822-80.619 31.382-129.158c2.165 5.016 4.358 10.02 6.579 15.011 1.974 6.013 1.312 11.656.381 17.794-1.105 7.28-1.465 14.646-1.536 22.003-.146 15.064 1.187 30.099 3.032 45.036 1.055 8.537 2.268 17.053 3.49 25.568.307 2.138 2.493 2.329 3.901 1.326.285 1.419 1.488 2.538 1.488 2.538s15.578.008 54.88-.34c36.183-.321 79.655-.871 79.655-.871s-3.593-123.201-16.977-162.77c-5.843-17.273-12.341-41.749-17.81-63.849l.136.013a5642.233 5642.233 0 0 0-3.408-14.213c7.062-2.801 13.721-6.215 13.721-6.215-3.317-31.578-29.961-149.917-41.212-258.836l-2.316-22.405c-.917-8.862-1.818-17.57-2.7-26.075a1874.39 1874.39 0 0 0 15.009 3.485 7.011 7.011 0 0 0 2.515.568c5.244.25 7.547-7.758 8.401-12.017 9.281-.024 21.532.498 35.07 6.563 21.454 9.612 56.626 17.555 66.569 15.567 9.943-1.989 15.715 1.336 18.367-5.292 2.651-6.629 8.617-9.943 13.92-13.92 5.303-3.977-2.32-8.286 5.966-14.583 8.286-6.297 7.292-11.931-7.291-16.24zM870.749 647.907c4.764 6.693 6.147 15.21 7.193 20.465l-1.264-1.281c-2.341-5.89-4.802-13.049-6.143-19.494.072.104.139.204.214.31zm-9.326-15.852c2.488 2.153 3.876 3.784 4.729 5.196-.587 7.458 2.249 17.584 5.236 25.85-.119-.021-.239-.023-.359-.037-16.101-18.449-55.253-63.259-77.337-88.103 27.183 17.799 55.157 36.771 70.204 47.04-5.021-.066-8.596 4.755-2.473 10.054zm8.542 75.399-19.795 31.265a829.84 829.84 0 0 0-6.841-34.915c1.045-11.636 2.268-25.278-3.006-45.253-7.286-27.596-22.591-37.99-22.591-37.99-2.841-8.002-5.067-13.239-6.262-14.618-.684-.789-1.622-1.959-2.735-3.387 17.476 19.86 38.605 44.003 56.592 64.613a5.238 5.238 0 0 0 1.394 4.773l3.978 4.031a5.232 5.232 0 0 0 3.735 1.561c.55 0 1.095-.107 1.623-.28.333.431.697.903 1.09 1.409-2.264 11.431-7.182 28.791-7.182 28.791z" opacity=".5"/><path fill="#fff" d="M851.438 620.561s15.305 10.394 22.591 37.99c8.562 32.427 0 48.171 2.877 65.722 1.431 8.734 2.933 20.822 2.933 20.822l23.832-37.641s35.307 53.81 35.95 63.508c.174 2.627-4.774 11.54-11.129 21.573-3.384 5.342-5.359 14.685-8.98 19.882-5.938 8.521-9.676 16.877-12.269 19.47-7.144 7.144-41.378-36.02-44.057-77.398-2.679-41.379-11.748-133.928-11.748-133.928z"/><path fill="#90a5bc" d="M925.693 760.698s8.364 13.383 13.038 11.263c4.674-2.12-4.665-26.73-4.665-26.73l-8.373 15.467z"/><path fill="#9d4b28" d="M903.671 707.454s.068 14.709 7.866 30.146c7.797 15.436 14.156 23.098 14.156 23.098s15.261-27.955 21.195-39.851c5.935-11.896 22.467-30.972 22.043-44.114-.424-13.141-8.902-28.826-14.837-27.13-5.935 1.696 2.544-12.472-6.782-16.198s-4.633-12.212-11.007-12.844c-6.373-.632-7.645 4.023-13.58 0-5.935-4.023-11.189 5.727-11.189 5.727s-1.061 4.663-7.866-1.696c-6.804-6.358-17.063.088-8.542 7.463 8.521 7.374 4.197 8.646 9.326 15.852 5.129 7.206 6.34 16.532 7.43 21.619 1.091 5.088-8.213 37.928-8.213 37.928z"/><path fill="#dadde4" d="M747.386 539.857s30.398 23.668 38.882 32.153c5.422 5.422 15.646 13.995 20.126 15.834 2.558 1.05 5.497-.084 6.658-2.594.797-1.722 1.642-4 2.295-6.864 2.811 3.685 17.49 22.002 24.188 31.379 6.698 9.377 16.804 117.187 16.804 117.187s-30.251-41.347-57.666-90.231c-27.414-48.882-51.287-96.864-51.287-96.864z"/><path fill="#ee3d47" d="M801.862 603.6s3.548 5.711 10.074 13.732c6.526 8.021 7.91 53.109 7.91 53.109l35.201 56.511s-6.13-52.754-6.724-57.104c-.593-4.351-27.686-52.801-28.081-55.371-.396-2.571.198-15.227.198-15.227s-9.613-8.887-13.25-9.097c-3.635-.21-5.328 13.447-5.328 13.447z"/><path fill="#acbccd" d="M769.572 594.487c10.943 4.878 16.998 16.258 27.184 22.312 1.352.804 3.548.117 3.854-1.568.851-4.684 2.024-9.297 3.571-13.8.809-2.354 1.7-4.687 2.725-6.957.347-.768.661-1.988 1.58-2.004.783-.014 2.179 1.161 2.788 1.548 7.01 4.457 12.768 10.624 16.914 17.805 1.688 2.923 6.223.284 4.53-2.648-2.549-4.416-5.667-8.524-9.293-12.112-3.555-3.518-7.912-7.314-12.566-9.277-6.196-2.613-8.525 3.852-10.327 8.425-2.246 5.698-3.888 11.602-4.982 17.625l3.854-1.568c-10.193-6.059-16.154-17.395-27.184-22.312-3.057-1.362-5.729 3.158-2.648 4.531z"/><path fill="#607cac" d="M830.491 1184.643s-9.001 78.672-9.081 120.443c-.08 41.771-32.966 148.758-32.966 148.758s-62.711.631-88.033.631H649.79s20.642-78.529 32.682-164.589c7.437-53.155 14.216-120.035 14.216-120.035l97.355-69.454c0 .001 36.522 53.116 36.448 84.246z"/><path fill="#607cac" d="M924.512 1172.828s16.829 77.376 30.213 116.945c13.384 39.569 16.977 162.77 16.977 162.77s-43.471.55-79.654.871c-39.303.349-55.884.179-55.884.179s-15.214-70.734-5.102-108.423c-59.252-124.844-37.982-143.23-37.982-143.23l69.783-97.12c-.001.001 51.688 38.514 61.649 68.008z"/><path fill="#464e7a" d="m789.611 1242.11 1.269-5.262c21.467-1.423 55.537-6.175 77.019-7.351 21.502-1.177 41.238-6.44 62.602-4.222 2.355.244 4.193.432 6.55.663-5.869-24.611-7.849-32.313-7.849-32.313-16.219-75.426-39.733-82.678-39.733-82.678l-65.024 46.389c-10.358-27.774-30.402-56.938-30.402-56.938l-97.354 69.454s-2.513 31.58-6.958 68.501c15.827-2.983 83.87 5.356 99.88 3.757z"/><path fill="#464e7a" d="M771.95 1197.558a1454.172 1454.172 0 0 0 55.07 143.309 1455.75 1455.75 0 0 0 18.082 38.954c1.464 3.038 5.987.375 4.526-2.656a1440.702 1440.702 0 0 1-58.747-140.317 1459.602 1459.602 0 0 1-13.862-40.647c-1.04-3.199-6.115-1.862-5.069 1.357z"/><path fill="#464e7a" d="M826.38 1339.389c2.015 6.051 1.349 11.723.412 17.896-1.105 7.28-1.465 14.646-1.536 22.003-.146 15.064 1.187 30.099 3.032 45.036 1.055 8.537 2.268 17.053 3.49 25.568.479 3.335 5.543 1.949 5.068-1.357-2.167-15.105-4.325-30.224-5.484-45.446-1.116-14.65-1.721-29.84.491-44.418 1.074-7.075 1.909-13.691-.405-20.639-1.062-3.19-6.138-1.855-5.068 1.357z"/><path fill="#fff" d="M678.102 554.874c.49-.213 58.567-23.501 65.711-23.054l7.144.447s-1.79 6.834-.119 12.294c1.67 5.46 103.406 179.487 103.406 179.487s-14.811-105.285-19.085-116.16c-4.273-10.874-19.902-27.396-19.902-27.396s-1.34-7.591-.446-11.163c.893-3.572 24.559 29.918 30.364 36.615 5.805 6.698 35.871 104.19 43.016 169.085 2.934 26.65 10.119 95.747 17.959 171.644 11.251 108.919 37.895 227.258 41.212 258.836 0 0-21.533 11.043-28.231 9.704-6.698-1.34-22.953-74.775-22.953-74.775s-3.08 82.534-6.698 85.734c-8.949 7.914-174.536 4.321-237.358-12.579 5.993-71.035 16.126-161.567 23.544-287.488 7.42-125.922 2.436-371.231 2.436-371.231z"/><path fill="#1a1a1a" d="M835.749 869.804c-18.585-7.648-36.141-17.503-52.915-28.536-8.328-5.477-16.468-11.238-24.455-17.2-8.051-6.01-16.206-12.045-23.62-18.834-13.506-12.369-26.274-25.505-39.442-38.227.125.767.235 1.536.378 2.301 4.6 24.521 16.191 47.594 28.841 68.874 2.781 4.677 5.513 9.428 9.011 13.615 3.303 3.952 7.056 7.514 11.078 10.728 8.402 6.716 18.021 11.877 27.778 16.323 9.896 4.509 20.122 8.236 30.359 11.883 12.181 4.338 24.158 9.153 36.191 13.881 21.823 8.576 43.685 17.054 65.501 25.647a93593.4 93593.4 0 0 0-3.996-38.591c-5.668-1.509-11.271-3.239-16.783-4.978-16.089-5.073-32.319-10.464-47.926-16.886z"/><path fill="#dadde4" d="M734.339 585.64c.874 1.441 3.144.124 2.266-1.324-8.72-14.369-19.561-30.967-34.878-38.67-1.156.44-2.292.875-3.407 1.303 16.095 6.851 27.174 24.115 36.019 38.691z"/><path fill="#fff" d="M932.381 829.582s-9.063-4.839-37.641-17.342c-28.578-12.503-89.306-41.081-92.878-52.69-3.572-11.61-1.786-10.717-5.358-23.219-3.572-12.503-26.792-32.15-33.936-72.338-7.144-40.188-41.974-116.99-75.91-111.632-33.936 5.358-50.011 57.156-18.754 151.82S724.167 837.245 759.889 856c13.297 6.981 38.101 17.388 64.747 24.922 6.417 1.815 13.499 1.375 19.91 3.087 11.01 2.94 19.701 8.41 29.476 10.839 7.911 1.966 17.253 1.002 23.446 2.476 12.901 3.071 21.191 4.923 21.191 4.923l13.722-72.665z"/><path fill="#90a5bc" d="M927.488 887.645s-1.698 14.941-8.829 14.602c-7.131-.339-7.72-8.878-6.774-17.997s15.603 3.395 15.603 3.395z"/><path fill="#9d4b28" d="M962.131 834.252s30.993-14.63 36.958-14.63c5.966 0 25.663 8.895 32.684 9.04 7.021.145 9.363 7.141.93 11.722-8.432 4.581-22.757-4.907-23.089.065-.332 4.971 35.463 17.566 50.046 21.875 14.583 4.308 15.577 9.943 7.292 16.24-8.286 6.297-.663 10.606-5.966 14.583-5.303 3.977-11.269 7.292-13.92 13.92-2.651 6.629-8.424 3.304-18.367 5.292-9.943 1.989-45.116-5.955-66.569-15.567-21.454-9.612-39.683-5.303-47.969-6.96-8.286-1.657 8.286-53.361 13.92-58.664 5.636-5.302 34.05 3.084 34.05 3.084z"/><path fill="#8d3c1d" d="M997.019 899.173c-.784-3.261.172-6.655 2.573-9.004 2.646-2.588 5.648-4.391 6.924-8.071.589-1.697.754-3.507 1.305-5.217.497-1.543 1.259-2.983 2.181-4.315a16.618 16.618 0 0 1 7.881-6.074c3.148-1.145 1.789-6.218-1.395-5.059-3.838 1.396-7.253 3.697-9.821 6.896-1.344 1.674-2.426 3.452-3.255 5.433-.795 1.901-1.127 3.85-1.632 5.833-1.009 3.962-5.262 5.647-7.554 8.795-2.55 3.503-3.271 8.003-2.268 12.178.791 3.281 5.851 1.891 5.061-1.395z"/><path fill="#dadde4" d="m919.565 821.46-63.807-31.039c-10.226-4.975-20.642-9.699-30.239-15.839-9.69-6.199-19.078-12.863-28.773-19.062a836.306 836.306 0 0 0-33.265-20.184c-2.932-1.688-5.577 2.844-2.648 4.53 20.043 11.538 39.321 24.138 58.55 36.963 9.476 6.32 19.615 11.258 29.837 16.23a466589.96 466589.96 0 0 1 31.904 15.52l35.794 17.412c3.023 1.47 5.686-3.053 2.647-4.531z"/><path fill="#dadde4" d="M804.743 760.285c-8.393-5.084-10.393-15.689-12.019-24.59-.982-5.376-1.985-10.76-4.168-15.803-2.113-4.881-5.468-8.91-8.789-13.005-12.327-15.197-15.616-34.315-20.69-52.677-2.86-10.349-6.45-20.634-12.472-29.606-1.872-2.789-6.419-.166-4.53 2.648 10.946 16.31 13.248 36.27 19.047 54.624 2.905 9.194 6.749 18.138 12.645 25.831 3.354 4.376 7.24 8.418 9.633 13.445 2.316 4.864 3.233 10.301 4.195 15.558 1.927 10.53 4.663 22.148 14.499 28.105 2.896 1.755 5.536-2.781 2.649-4.53zM856.073 643.774c11.793 39.307 20.685 79.472 26.531 120.093a817.483 817.483 0 0 1 4.228 34.75c.334 3.328 5.585 3.362 5.247 0-4.141-41.205-11.3-82.097-21.514-122.232a835.597 835.597 0 0 0-9.432-34.006c-.969-3.226-6.034-1.852-5.06 1.395zM790.79 655.177a495.08 495.08 0 0 0-24.381-27.161l6.071-18.482c.59-1.796-.948-3.117-2.529-3.321l-12.819-1.651-3.419-.44c-.604-.078-2.479.001-2.925-.422-.479-.456-.605-1.968-.772-2.565l-.699-2.502a1835.3 1835.3 0 0 1-6.903-25.488c-2.122-8.066-4.396-16.139-6.123-24.301-1.033-4.886-1.743-10.076-1.17-15.077-1.63.495-3.435 1.076-5.347 1.711-.504 9.415 2.43 19.119 4.751 28.168a1826.93 1826.93 0 0 0 8.921 33.463c.835 3.015 1.274 6.788 2.961 9.457 1.992 3.154 7.049 2.77 10.297 3.188l9.774 1.258-5.707 17.372c-.522 1.589.036 2.775 1.306 4.118.018.02 54.443 63.703 77.632 98.934 6.686 10.158 13.28 20.376 19.888 30.584 1.829 2.825 6.372.198 4.531-2.648-23.085-35.661-46.09-71.509-73.338-104.195zM890.84 954.13c1.168 34.37 2.39 68.739 3.491 103.111 1.089 33.995 1.831 68.039.307 102.033-.862 19.231-2.447 38.441-5.116 57.509-.198 1.414.345 2.8 1.832 3.227 1.225.352 3.031-.431 3.227-1.832 4.746-33.906 6.223-68.14 6.165-102.351-.058-34.287-1.494-68.561-2.658-102.823l-2-58.875c-.116-3.366-5.363-3.381-5.248.001z"/><path fill="#1a1a1a" d="M908.14 677.534a5.232 5.232 0 0 1-3.735-1.561l-3.978-4.031a5.246 5.246 0 0 1 .049-7.419 5.244 5.244 0 0 1 7.42.048l3.978 4.031a5.246 5.246 0 0 1-3.734 8.932z"/><path fill="#1a1a1a" d="M908.435 676.123a3.487 3.487 0 0 1-2.637-1.199c-37.735-43.275-95.138-108.777-98.622-111.858a3.506 3.506 0 0 1-.315-4.938 3.494 3.494 0 0 1 4.924-.326c4.802 4.203 89.629 101.45 99.286 112.524a3.498 3.498 0 0 1-2.636 5.797z"/><path fill="#acbccd" d="M984.734 745.231s-1.186-1.363.863-4.49c2.049-3.127 4.745-5.176 8.087-3.019 3.343 2.156 4.098 6.807 2.372 9.334-1.725 2.528-8.519 6.116-11.322-1.825z"/><path fill="#fff" d="M985.245 749.529c-.402 0-.816-.024-1.24-.071-20.643-2.327-70.568-67.345-76.193-74.751a2.471 2.471 0 1 1 3.936-2.99c14.93 19.657 57.116 71.059 72.811 72.829 1.733.196 2.434-.392 2.664-.585a2.471 2.471 0 0 1 3.172 3.79c-1.413 1.182-3.141 1.778-5.15 1.778z"/><path fill="#acbccd" d="M823.15 706.675c2.679 9.442-2.32 19.131-11.167 21.641-8.846 2.51-18.19-3.109-20.869-12.551-2.679-9.442 2.32-19.131 11.167-21.641 8.847-2.51 18.19 3.11 20.869 12.551z"/><path fill="#fff" d="M998.336 725.557a2.623 2.623 0 0 1-2.41-1.585c-6.292-14.586-42.194-52.787-42.556-53.171a2.622 2.622 0 1 1 3.819-3.597c1.503 1.595 36.898 39.261 43.554 54.691a2.622 2.622 0 0 1-2.407 3.662z"/><path fill="#acbccd" d="M993.252 722.303s-1.655 5.333 1.941 7.757c5.766 3.888 8.626-1.611 8.734-6.356.108-4.744-8.734-6.539-10.675-1.401z"/><path fill="#1a1a1a" d="M807.812 705.296a3.501 3.501 0 0 1-3.455-2.979c-.039-.26-4.077-26.266-17.698-48.951-3.571-5.945-9.472-14.673-16.305-24.778-17.976-26.585-40.347-59.673-44.335-76.93-3.469-15.011.709-22.128 4.825-25.455 4.838-3.909 14.681-6.661 34.102 2.442 29.573 13.863 143.028 91.959 147.843 95.278a3.497 3.497 0 1 1-3.969 5.759c-1.175-.808-117.791-81.083-146.843-94.704-12.413-5.817-22.158-7.037-26.735-3.336-3.622 2.929-4.477 9.477-2.406 18.44 3.695 15.989 26.594 49.857 43.314 74.586 6.889 10.188 12.839 18.989 16.507 25.096 14.358 23.911 18.452 50.397 18.619 51.512a3.498 3.498 0 0 1-2.939 3.978 3.356 3.356 0 0 1-.525.042z"/><path fill="#1a1a1a" d="M747.47 525.602c-5.81 1.242-12.078 2.934-15.78 7.961-3.852 5.232-3.097 12.057-.819 17.772 2.605 6.535 6.689 12.455 10.264 18.485 3.91 6.595 7.807 13.198 11.766 19.764 7.764 12.875 15.769 25.623 24.57 37.82 8.087 11.208 15.756 22.698 21.626 35.248 5.759 12.312 9.416 25.396 12.015 38.706.646 3.311 5.704 1.909 5.059-1.395-2.206-11.299-5.152-22.445-9.542-33.106-4.74-11.512-10.918-22.31-17.904-32.599-4.092-6.027-8.481-11.844-12.584-17.864-4.082-5.989-8.008-12.082-11.84-18.233-7.673-12.315-14.968-24.858-22.399-37.318-3.447-5.779-8.553-12.767-7.655-19.907.904-7.193 8.685-9.006 14.617-10.274 3.301-.706 1.904-5.765-1.394-5.06z"/><path fill="#1a1a1a" d="M817.474 698.877s-9.626 3.335-13.631 4.837c-4.005 1.502-4.005 7.509 0 13.016s8.731 1.669 11.541 0c2.81-1.669 8.817-4.005 10.319-5.006 1.502-1.001-8.229-12.847-8.229-12.847z"/><path fill="#fff" d="M912.603 678.369a1.75 1.75 0 0 1-1.58-.996c-1.768-3.701-17.034-36.478-8.869-47.184 2.242-2.941 5.86-3.988 10.756-3.107a1.748 1.748 0 0 1 1.412 2.031 1.745 1.745 0 0 1-2.03 1.412c-3.547-.634-5.954-.053-7.356 1.785-5.826 7.638 4.697 34.032 9.243 43.557a1.748 1.748 0 0 1-1.576 2.502z"/><path fill="#acbccd" d="M835.312 701.581c1.947 6.863-1.687 13.905-8.116 15.729-6.43 1.824-13.221-2.26-15.168-9.122s1.686-13.905 8.116-15.729c6.43-1.824 13.221 2.26 15.168 9.122z"/><path fill="#dadde4" d="M824.079 712.5c-3.164 0-6.044-2.362-7.004-5.744-.577-2.033-.388-4.133.532-5.916.86-1.667 2.27-2.85 3.969-3.334a6.226 6.226 0 0 1 1.685-.236c3.164 0 6.044 2.362 7.004 5.744.577 2.033.388 4.133-.532 5.916-.86 1.667-2.27 2.85-3.969 3.334a6.226 6.226 0 0 1-1.685.236z"/><path fill="#8d3c1d" d="M960.085 664.246c-.574-1.014-2.412-2.282-3.963-1.691-1.796.684-2.556 1.762-3.595 3.108-1.358 1.757-2.613 3.609-3.675 5.56-.562 1.033-1.127 2.134-1.412 3.28-.331 1.33.428 2.907 1.832 3.227 1.358.309 2.677-.471 3.227-1.832.537-1.328 1.69-3.446 2.243-4.307.529-.824 2.188-3.232 2.831-3.977.596.496 2.503 2.69 2.503 2.69 1.175-.757 1.423-3.56.009-6.058z"/><path fill="#8d3c1d" d="M946.309 673.125c-.733-.23-.944-.45-1.539-1.052-1.389-1.404-1.206-2.832-.476-4.586 1.65-3.964 3.63-8.143 6.404-11.45.91-1.085 1.064-2.647 0-3.71-.935-.935-2.795-1.091-3.71 0-2.093 2.495-3.752 5.247-5.189 8.163-1.4 2.841-3.277 5.991-3.366 9.228-.092 3.362 2.152 5.996 4.765 7.808 2.865 1.987 7.007 2.327 9.037-1.002 1.197-1.962-2.907-5.795-3.997-4.121-.613.943-1.874.74-1.929.722z"/><path fill="#8d3c1d" d="M939.405 665.933c-.646.651-1.479 1.157-2.332 1.493-.856.337-1.327.543-1.788-.03-1.747-2.173-1.834-5.596-1.407-8.211.54-3.312 1.869-6.461 3.07-9.574l3.914-10.143c.51-1.322-.563-2.878-1.832-3.227-1.481-.407-2.715.505-3.227 1.832-1.627 4.216-3.278 8.425-4.879 12.651-1.511 3.991-2.818 8.235-2.401 12.556.331 3.431 1.828 8.482 5.643 9.528 3.081.845 6.813-1.013 8.949-3.165 2.38-2.399-1.328-6.111-3.71-3.71z"/><path fill="#8d3c1d" d="M930.265 660.529c-2.328.516-4.07-2.224-4.645-3.849-.706-1.996-.79-3.536-.858-5.651-.073-2.264.031-4.771.357-6.871.172-1.107.397-2.21.712-3.285.126-.43.265-.857.427-1.275.287-.74-.222.398.124-.265.102-.197.206-.392.318-.584 1.704-2.923-2.828-5.567-4.53-2.648-1.29 2.211-1.852 4.804-2.205 7.312-.431 3.057-.603 6.151-.361 9.233.222 2.826.716 5.579 2.154 8.062 2.045 3.529 5.778 5.796 9.902 4.882 3.295-.732 1.901-5.791-1.395-5.061z"/><path fill="#8d3c1d" d="M922.148 652.098c-2.771-.625-6.69-1.912-7.117-5.181-.298-2.287.213-4.767.341-7.069.256-4.598.313-9.224.745-13.81.133-1.413-1.301-2.623-2.623-2.623-1.53 0-2.49 1.207-2.623 2.623-.478 5.076-.502 10.193-.833 15.28-.206 3.162-.711 6.352.7 9.334 1.743 3.684 6.258 5.659 10.015 6.506 3.289.741 4.693-4.317 1.395-5.06z"/><path fill="#dadde4" d="M801.491 720.339c-2.344-2.448-3.824-5.723-4.087-9.047-.056-.706-.563-1.312-1.312-1.312-.666 0-1.368.602-1.312 1.312.324 4.084 2.017 7.938 4.856 10.902 1.17 1.222 3.023-.635 1.855-1.855z"/><path fill="#391715" d="M882.594 455.917s.185 3.835 6.885 1.018c6.699-2.817 4.457-5.46 7.901-7.914 14.138-10.074 18.672-38.242 4.668-59.086-14.004-20.844-27.718-12.752-27.718-12.752s-.875-7.192-20.491-18.35c-15.641-8.897-33.188-17.488-60.032-9.319-14.754 4.49-17.067 15.211-17.067 15.211s-16.336 0-25.743 7.324c-9.408 7.324-5.615 30.638-5.615 30.638s-12.545 21.755-7.293 40.346c5.251 18.591 15.826 29.924 15.826 29.924s5.323 13.426 3.501 19.074c-1.822 5.648 4.032 13.214 8.37 7.338 4.338-5.876 116.884-41.148 116.884-41.148"/><path fill="#9d4b28" d="M821.807 528.545s-5.756 27.174-6.465 37.053c-.709 9.878 2.294 12.088-2.226 21.586-4.521 9.498-30.785-8.819-46.448-23.395-15.662-14.576-20.482-21.721-20.482-23.931 0-2.211 4.771-7.591 4.771-7.591s18.843-55.101 23.662-65.703c4.82-10.603 47.188 61.981 47.188 61.981z"/><path fill="#1a1a1a" d="M774.966 493.491c-1.702 16.801-1.444 35.084 8.614 49.439 5.011 7.154 12.054 12.673 19.712 16.756 3.962 2.112 8.109 3.848 12.354 5.303 1.282-10.805 5.852-32.385 5.852-32.385s-31.901-54.651-42.025-59.328c-2.665 6.361-3.836 13.599-4.507 20.215z"/><path fill="#9d4b28" d="M785.125 446.433s-10.175-21.481-21.198-8.762c-11.023 12.719-.283 38.439 11.306 45.223 0 0 3.705 27.183 9.505 40.206 8.336 18.713 43.912 47.148 67.828 25.687 15.848-14.221 28.093-57.696 30.354-74.937 2.261-17.241-.848-40.135-5.088-46.919-4.24-6.783-14.132 4.522-21.763-3.392-7.631-7.914-19.502-16.676-27.982-10.175-8.479 6.501 2.261 21.198-5.088 23.177-7.349 1.979-18.052.565-21.321 8.762-3.268 8.197-16.553 1.13-16.553 1.13z"/><path fill="#1a1a1a" d="M836.085 474.722c-.015-.083-.046-.162-.064-.244a6.77 6.77 0 0 0-.222-1.534 5.53 5.53 0 0 0-.633-1.411c.001-.041 0-.084.002-.124.026-.849-.482-1.676-1.204-2.098-.783-.458-1.668-.402-2.453 0-.04.021-.078.052-.12.074-1.169.072-2.34.641-3.081 1.505-.574.668-1.011 1.422-1.211 2.288-.164.701-.225 1.437-.238 2.157-.024 1.258.049 2.644.776 3.723.726 1.08 1.814 1.73 3.019 1.885.136.054.271.112.411.148 1.87.491 3.766-.727 4.536-2.413.355-.777.509-1.372.603-2.22.062-.582-.021-1.162-.121-1.736zM879.586 487.829c-.145-1.078-.796-2.126-1.804-2.606-.946-.45-1.949-.563-2.972-.293-1.017.269-1.841.934-2.421 1.795-.56.831-.754 1.816-.834 2.795-.064.782.017 1.587.138 2.358.106.667.36 1.368.764 1.91.368.494.687.872 1.234 1.194.721.424 1.589.523 2.396.331 1.167-.278 1.991-1.22 2.546-2.231.481-.875.808-1.862.789-2.871-.002-.081-.02-.16-.026-.241.032-.127.067-.254.096-.382.129-.604.175-1.152.094-1.759z"/><path fill="#8d3c1d" d="M855.792 511.441h-6.451a2.05 2.05 0 0 1 0-4.098h6.451a2.05 2.05 0 0 1 0 4.098z"/><path fill="#391715" d="M841.659 451.502c-.265 0-.534-.042-.799-.132a39.526 39.526 0 0 0-19.23-1.548 2.483 2.483 0 0 1-.825-4.896 44.556 44.556 0 0 1 21.653 1.745 2.48 2.48 0 0 1-.799 4.831zM883.842 468.764a2.473 2.473 0 0 1-1.67-.646 28.902 28.902 0 0 0-6.935-4.677 2.481 2.481 0 0 1-1.162-3.311 2.476 2.476 0 0 1 3.313-1.162 33.835 33.835 0 0 1 8.126 5.479 2.482 2.482 0 0 1-1.672 4.317z"/><path fill="#fff" d="m855.792 524.813-18.206-5.679s-3.147 14.347 2.832 15.363c5.979 1.016 15.374-9.684 15.374-9.684z"/><path fill="#391715" d="M778.615 370.466a2.596 2.596 0 0 1-2.069-1.007c-3.893-5.081-9.384-9.167-15.461-11.505-1.319-.508-1.962-1.952-1.436-3.226.526-1.273 2.021-1.891 3.34-1.387 7.055 2.715 13.172 7.268 17.691 13.166.844 1.101.604 2.655-.538 3.471a2.62 2.62 0 0 1-1.527.488z"/><path fill="#e38e6b" d="M1038.621 855.29s-17.582-20.083-26.555-18.086c-8.973 1.997-9.586 13.065-1.528 13.452 8.058.386 9.132-2.02 9.132-2.02s15.225 5.311 18.951 6.654zM1036.469 912.089s-5.947 1.641-10.146-3.599c-4.199-5.24-7.519-2.1-7.519-2.1s-2.533-7.538-7.641-4.986c0 0-2.611-5.852-7.415.165-4.805 6.017-1.228-2.416-8.651-2.389-7.423.026-1.624 16.498 6.547 13.438 0 0 5.185 4.037 10.563 4.201 5.378.163 8.637 4.166 12.575 2.145 3.937-2.022 4.83 3.695 11.687-6.875z"/></svg>